<?xml version="1.0" encoding="utf-8"?>
<!-- Generator: Adobe Illustrator 16.0.0, SVG Export Plug-In . SVG Version: 6.00 Build 0)  -->
<!DOCTYPE svg PUBLIC "-//W3C//DTD SVG 1.1//EN" "http://www.w3.org/Graphics/SVG/1.1/DTD/svg11.dtd">
<svg version="1.1" id="Layer_1" xmlns="http://www.w3.org/2000/svg" xmlns:xlink="http://www.w3.org/1999/xlink" x="0px" y="0px"
	 width="77.375px" height="50px" viewBox="0 0 77.375 50" enable-background="new 0 0 77.375 50" xml:space="preserve">
<path opacity="0.7" fill-rule="evenodd" clip-rule="evenodd" fill="#FAFDFD" d="M76.19,28.048c0,1.996-0.494,3.877-1.368,5.527
	c-0.592,1.12-1.359,2.134-2.265,3.004c-2.104,2.022-4.956,3.274-8.1,3.301c-0.279,0.336-0.577,0.655-0.893,0.958
	c-2.126,2.045-5.016,3.301-8.198,3.301c-0.175,0-0.35-0.133-0.522-0.141C52.092,43.879,49.584,43,47.634,41H9.101
	c-1.363,0-2.548-0.961-3.158-2.557c-2.199-0.775-3.961-2.418-4.815-4.578c-0.361-0.916-0.561-1.885-0.561-2.929
	c0-4.222,3.25-7.671,7.384-8.011c1.147-5.335,5.89-9.325,11.567-9.325c1.796,0,3.499,0.404,5.023,1.12
	c0.224,0.104,0.443,0.218,0.658,0.336c0.085-0.232,0.178-0.46,0.277-0.686c2.047-4.694,6.73-7.974,12.179-7.974
	c6.152,0,11.328,4.182,12.838,9.858c1.133,0.107,2.197,0.45,3.145,0.978c1.005,0.561,1.877,1.329,2.558,2.248
	c2.123-2.023,4.997-3.266,8.16-3.266c1.797,0,3.499,0.4,5.024,1.116C73.404,19.221,76.19,23.31,76.19,28.048z"/>
</svg>
