<?xml version="1.0" encoding="utf-8"?>
<!-- Generator: Adobe Illustrator 16.0.0, SVG Export Plug-In . SVG Version: 6.00 Build 0)  -->
<!DOCTYPE svg PUBLIC "-//W3C//DTD SVG 1.1//EN" "http://www.w3.org/Graphics/SVG/1.1/DTD/svg11.dtd">
<svg version="1.1" xmlns="http://www.w3.org/2000/svg" xmlns:xlink="http://www.w3.org/1999/xlink" x="0px" y="0px"
	 width="77.375px" height="50px" viewBox="0 0 77.375 50" enable-background="new 0 0 77.375 50" xml:space="preserve">
<g id="Layer_1" display="none">
	<path display="inline" opacity="0.7" fill-rule="evenodd" clip-rule="evenodd" fill="#FAFDFD" d="M76.19,28.048
		c0,1.996-0.494,3.877-1.368,5.527c-0.592,1.12-1.359,2.134-2.265,3.004c-2.104,2.022-4.956,3.274-8.1,3.301
		c-0.279,0.336-0.577,0.655-0.893,0.958c-2.126,2.045-5.016,3.301-8.198,3.301c-0.175,0-0.35-0.133-0.522-0.141
		C52.092,43.879,49.584,43,47.634,41H9.101c-1.363,0-2.548-0.961-3.158-2.557c-2.199-0.775-3.961-2.418-4.815-4.578
		c-0.361-0.916-0.561-1.885-0.561-2.929c0-4.222,3.25-7.671,7.384-8.011c1.147-5.335,5.89-9.325,11.567-9.325
		c1.796,0,3.499,0.404,5.023,1.12c0.224,0.104,0.443,0.218,0.658,0.336c0.085-0.232,0.178-0.46,0.277-0.686
		c2.047-4.694,6.73-7.974,12.179-7.974c6.152,0,11.328,4.182,12.838,9.858c1.133,0.107,2.197,0.45,3.145,0.978
		c1.005,0.561,1.877,1.329,2.558,2.248c2.123-2.023,4.997-3.266,8.16-3.266c1.797,0,3.499,0.4,5.024,1.116
		C73.404,19.221,76.19,23.31,76.19,28.048z"/>
</g>
<g id="Layer_2">
	<path opacity="0.8" fill-rule="evenodd" clip-rule="evenodd" fill="#FAFDFD" d="M69.762,30.064c0,1.752-0.434,3.402-1.199,4.85
		c-0.52,0.982-1.193,1.871-1.988,2.635c-1.865,1.793-4.399,2.896-7.191,2.896c-0.152,0-0.307-0.004-0.458-0.011
		c-2.009-0.087-3.87-0.747-5.423-1.819c-0.953,0.443-2.014,0.691-3.133,0.691c-0.109,0-0.219-0.002-0.328-0.008
		c-0.814-0.035-1.594-0.201-2.318-0.48c-1.588,1.349-3.643,2.162-5.889,2.162c-0.135,0-0.27-0.004-0.402-0.009
		c-1.976-0.087-3.787-0.803-5.241-1.952c-1.225,0.889-2.732,1.413-4.36,1.413c-0.11,0-0.22-0.003-0.329-0.007
		c-1.953-0.086-3.71-0.928-4.989-2.238c-1.773,1.413-4.019,2.258-6.462,2.258c-0.153,0-0.306-0.004-0.459-0.011
		c-1.405-0.062-2.738-0.402-3.944-0.969c-0.913,0.626-2.019,0.993-3.21,0.993c-0.084,0-0.168-0.002-0.25-0.006
		c-1.321-0.058-2.525-0.566-3.463-1.378c-0.532-0.46-0.979-1.071-1.312-1.7c-0.159-0.301-0.292-0.462-0.396-1.004l0,0
		c-0.032,0-0.061-0.146-0.086-0.248c-0.114-0.448-0.175-0.89-0.175-1.374c0-1.618,0.677-3.065,1.763-4.101
		c0.347-0.329,0.735-0.609,1.157-0.845c0.068-2.855,1.289-5.422,3.217-7.259c1.862-1.773,4.384-2.861,7.159-2.861
		c1.576,0,3.069,0.352,4.407,0.98c0.19,0.09,0.376,0.185,0.559,0.284c0.277-3.168,1.717-6,3.892-8.071
		c2.279-2.172,5.364-3.504,8.76-3.504c1.927,0,3.755,0.431,5.392,1.2c3.714,1.744,6.445,5.233,7.138,9.411
		c0.19-0.271,0.407-0.521,0.646-0.75c0.906-0.864,2.134-1.393,3.485-1.393c0.767,0,1.494,0.17,2.146,0.477
		c0.706,0.332,1.323,0.822,1.804,1.426c0.363-0.039,0.731-0.059,1.104-0.059c1.575,0,3.069,0.352,4.406,0.98
		C67.319,22.323,69.762,25.908,69.762,30.064z"/>
</g>
<g id="Layer_3" display="none">
	<path display="inline" opacity="0.6" fill-rule="evenodd" clip-rule="evenodd" fill="#FAFDFD" d="M61.292,33.648v0.013
		c0,1.824-1.615,3.339-2.893,3.339h-33.68c-1.279,0-2.428-1.515-2.428-3.339v-0.013c0-1.811,1.077-3.281,2.341-3.303
		c-0.563-1.063-0.853-2.275-0.853-3.561c0-4.209,3.427-7.622,7.636-7.622c1.156,0,2.262,0.258,3.244,0.72
		c1.783-4.087,5.861-6.943,10.605-6.943c6.186,0,11.24,4.857,11.551,10.967c1.59,0.886,2.665,2.584,2.665,4.533
		c0,0.727,0.141,1.416-0.129,2.045C60.307,30.892,61.292,32.154,61.292,33.648z"/>
</g>
</svg>
