<?xml version="1.0" encoding="utf-8"?>
<!-- Generator: Adobe Illustrator 16.0.0, SVG Export Plug-In . SVG Version: 6.00 Build 0)  -->
<!DOCTYPE svg PUBLIC "-//W3C//DTD SVG 1.1//EN" "http://www.w3.org/Graphics/SVG/1.1/DTD/svg11.dtd">
<svg version="1.1" id="Layer_1" xmlns="http://www.w3.org/2000/svg" xmlns:xlink="http://www.w3.org/1999/xlink" x="0px" y="0px"
	 width="227.988px" height="173.992px" viewBox="0 0 227.988 173.992" enable-background="new 0 0 227.988 173.992"
	 xml:space="preserve">
<g id="cunstruct">
	<g id="j3constuction">
		<g>
			<path opacity="0.3" fill="#C1C6C6" enable-background="new    " d="M108.779,113.695l-36.86-12.271v-7.441l21.063,7.014V85.95
				l15.796-5.261L108.779,113.695L108.779,113.695z M114.047,113.605v-7.439l42.04-13.951l0.077-0.006l-16.903-5.598l-25.214,8.365
				v-7.441l14.076-4.643l-12.846-4.299l-3.688-1.24l-0.194-0.025L92.983,83.42v-7.44l18.427-6.092l11.313,3.744l3.755,1.238
				l51.945,17.338L114.047,113.605z"/>
			<path fill="#2E7275" d="M107.925,109.796L69.143,96.882v-7.826l22.162,7.379v-15.83l16.621-5.534L107.925,109.796
				L107.925,109.796z M113.468,109.703v-7.828l44.23-14.68l0.081-0.005l-17.782-5.888l-26.529,8.8v-7.829l14.808-4.884
				l-13.513-4.524l-3.882-1.304l-0.203-0.027l-19.374,6.41v-7.829l19.388-6.408l11.902,3.938l3.951,1.303L181.2,87.19
				L113.468,109.703z"/>
		</g>
		<g>
			<g>
				<path fill="#2E7275" d="M107.093,108.203l-26.189,48.526c0.151,0.074,0.304,0.136,0.457,0.22
					c0.131,0.069,0.247,0.149,0.369,0.223l26.226-48.592C107.662,108.466,107.375,108.341,107.093,108.203z"/>
			</g>
			<g>
				<path fill="#2E7275" d="M113.652,108.925l17.314,39.771c0.15-0.07,0.295-0.15,0.455-0.22c0.135-0.058,0.27-0.103,0.402-0.153
					l-17.338-39.828C114.213,108.648,113.936,108.791,113.652,108.925z"/>
			</g>
			<g>
				<path fill="#2E7275" d="M69.754,95.908l-22.624,6.6c0.05,0.162,0.102,0.313,0.149,0.479c0.042,0.146,0.075,0.282,0.114,0.417
					l22.654-6.606C69.946,96.501,69.847,96.205,69.754,95.908z"/>
			</g>
			<g>
				<path fill="#2E7275" d="M208.333,89.787l-28.582-3.035c-0.016,0.171-0.022,0.328-0.04,0.503c-0.02,0.149-0.042,0.288-0.057,0.43
					l28.621,3.041C208.291,90.412,208.312,90.099,208.333,89.787z"/>
			</g>
			<g>
				<ellipse fill="#C1C6C6" cx="110.799" cy="54.367" rx="2.683" ry="0.857"/>
				<rect x="109.902" y="46.412" fill="#6F7272" width="2" height="8"/>
			</g>
			<g>
				<path fill="#2E7275" d="M110.804,47.453l-0.448,16.952c0.171,0.002,0.333,0.002,0.509,0.005c0.147,0.007,0.285,0.017,0.43,0.02
					l0.45-16.977C111.434,47.459,111.12,47.456,110.804,47.453z"/>
			</g>
			<g>
				<ellipse fill="#C1C6C6" cx="207.616" cy="96.383" rx="2.683" ry="0.855"/>
				<rect x="206.902" y="89.412" fill="#6F7272" width="2" height="7"/>
			</g>
			<g>
				<ellipse fill="#C1C6C6" cx="83.398" cy="70.809" rx="2.684" ry="0.855"/>
				<rect x="82.902" y="63.412" fill="#6F7272" width="2" height="7"/>
			</g>
			<g>
				<ellipse fill="#C1C6C6" cx="59.398" cy="88.809" rx="2.684" ry="0.854"/>
				<rect x="58.902" y="81.412" fill="#6F7272" width="2" height="7"/>
			</g>
			<g>
				<ellipse fill="#C1C6C6" cx="46.863" cy="109.155" rx="2.656" ry="0.846"/>
				<rect x="45.902" y="102.412" fill="#6F7272" width="2" height="6"/>
			</g>
			<g>
				<path fill="#C1C6C6" d="M84.128,165.867c0,0.625-1.593,1.133-3.558,1.133c-1.964,0-3.558-0.508-3.558-1.133
					c0-0.629,1.593-1.137,3.558-1.137C82.536,164.73,84.128,165.238,84.128,165.867z"/>
				<rect x="79.902" y="156.412" fill="#6F7272" width="2" height="10"/>
			</g>
			<g>
				<path fill="#C1C6C6" d="M134.128,155.867c0,0.625-1.593,1.133-3.558,1.133s-3.559-0.508-3.559-1.133
					c0-0.629,1.594-1.137,3.559-1.137C132.536,154.73,134.128,155.238,134.128,155.867z"/>
				<rect x="129.902" y="146.412" fill="#6F7272" width="2" height="10"/>
			</g>
			<g>
				<path fill="#2E7275" d="M92.18,70.118l-8.097-6.028c-0.099,0.138-0.192,0.268-0.296,0.406c-0.089,0.12-0.176,0.23-0.262,0.347
					l8.108,6.035C91.813,70.622,91.997,70.37,92.18,70.118z"/>
			</g>
			<g>
				<path fill="#2E7275" d="M70.143,89.649l-9.863-7.34c-0.098,0.138-0.192,0.268-0.296,0.406c-0.089,0.12-0.175,0.23-0.261,0.345
					l9.875,7.352C69.776,90.156,69.96,89.901,70.143,89.649z"/>
			</g>
		</g>
	</g>
	<g id="crain">
		<path fill="#C1C6C6" d="M41.902,90.406c0-0.549-0.798-0.994-1.187-0.994h-19.11c-0.388,0-0.703,0.445-0.703,0.994v0.012
			c0,0.549,0.315,0.994,0.703,0.994h19.11c0.388,0,1.187-0.445,1.187-0.994V90.406z"/>
		<g>
			<g>
				<g>
					<g>
						<path fill="#2E7275" d="M31.11,89.818h-4.675v-4.676h4.675V89.818z M26.761,89.492h4.023v-4.023h-4.023V89.492z"/>
					</g>
					<g>
						<rect x="29.226" y="85.307" fill="#2E7275" width="0.109" height="4.349"/>
					</g>
					<g>
						<rect x="29.951" y="85.307" fill="#2E7275" width="0.108" height="4.349"/>
					</g>
					<g>
						<rect x="27.849" y="85.307" fill="#2E7275" width="0.109" height="4.349"/>
					</g>
					<g>
						
							<rect x="25.694" y="87.423" transform="matrix(-0.7071 -0.7071 0.7071 -0.7071 -12.7401 169.6789)" fill="#2E7275" width="6.15" height="0.11"/>
					</g>
					<g>
						
							<rect x="28.719" y="84.404" transform="matrix(-0.7093 -0.7049 0.7049 -0.7093 -12.4763 169.8138)" fill="#2E7275" width="0.109" height="6.15"/>
					</g>
					<g>
						<rect x="29.28" y="88.729" fill="#2E7275" width="1.667" height="0.108"/>
					</g>
					<g>
						<rect x="29.28" y="87.941" fill="#2E7275" width="1.667" height="0.107"/>
					</g>
					<g>
						<rect x="29.28" y="86.229" fill="#2E7275" width="1.667" height="0.108"/>
					</g>
				</g>
				<g>
					<g>
						<path fill="#2E7275" d="M31.11,85.469h-4.675v-4.675h4.675V85.469z M26.761,85.143h4.023V81.12h-4.023V85.143z"/>
					</g>
					<g>
						<rect x="29.226" y="80.957" fill="#2E7275" width="0.109" height="4.35"/>
					</g>
					<g>
						<rect x="29.951" y="80.957" fill="#2E7275" width="0.108" height="4.35"/>
					</g>
					<g>
						<rect x="27.849" y="80.957" fill="#2E7275" width="0.109" height="4.35"/>
					</g>
					<g>
						
							<rect x="25.694" y="83.073" transform="matrix(-0.7071 -0.7071 0.7071 -0.7071 -9.6684 162.252)" fill="#2E7275" width="6.15" height="0.11"/>
					</g>
					<g>
						
							<rect x="28.719" y="80.055" transform="matrix(-0.7093 -0.7049 0.7049 -0.7093 -9.4119 162.3802)" fill="#2E7275" width="0.109" height="6.151"/>
					</g>
					<g>
						<rect x="29.28" y="84.381" fill="#2E7275" width="1.667" height="0.108"/>
					</g>
					<g>
						<rect x="29.28" y="83.593" fill="#2E7275" width="1.667" height="0.108"/>
					</g>
					<g>
						<rect x="29.28" y="81.88" fill="#2E7275" width="1.667" height="0.108"/>
					</g>
				</g>
				<g>
					<g>
						<path fill="#2E7275" d="M31.11,81.12h-4.675v-4.675h4.675V81.12z M26.761,80.794h4.023v-4.022h-4.023V80.794z"/>
					</g>
					<g>
						<rect x="29.226" y="76.608" fill="#2E7275" width="0.109" height="4.349"/>
					</g>
					<g>
						<rect x="29.951" y="76.608" fill="#2E7275" width="0.108" height="4.349"/>
					</g>
					<g>
						<rect x="27.849" y="76.608" fill="#2E7275" width="0.109" height="4.349"/>
					</g>
					<g>
						
							<rect x="25.701" y="78.729" transform="matrix(-0.7071 -0.7071 0.7071 -0.7071 -6.5829 154.8407)" fill="#2E7275" width="6.151" height="0.109"/>
					</g>
					<g>
						
							<rect x="28.72" y="75.703" transform="matrix(-0.7004 -0.7137 0.7137 -0.7004 -7.2969 154.4939)" fill="#2E7275" width="0.11" height="6.15"/>
					</g>
					<g>
						<rect x="29.28" y="80.031" fill="#2E7275" width="1.667" height="0.109"/>
					</g>
					<g>
						<rect x="29.28" y="79.243" fill="#2E7275" width="1.667" height="0.109"/>
					</g>
					<g>
						<rect x="29.28" y="77.531" fill="#2E7275" width="1.667" height="0.108"/>
					</g>
				</g>
				<g>
					<g>
						<path fill="#2E7275" d="M31.11,76.771h-4.675v-4.676h4.675V76.771z M26.761,76.445h4.023v-4.023h-4.023V76.445z"/>
					</g>
					<g>
						<rect x="29.226" y="72.259" fill="#2E7275" width="0.109" height="4.35"/>
					</g>
					<g>
						<rect x="29.951" y="72.259" fill="#2E7275" width="0.108" height="4.35"/>
					</g>
					<g>
						<rect x="27.849" y="72.259" fill="#2E7275" width="0.109" height="4.35"/>
					</g>
					<g>
						
							<rect x="25.694" y="74.377" transform="matrix(-0.7071 -0.7071 0.7071 -0.7071 -3.5194 147.4045)" fill="#2E7275" width="6.15" height="0.109"/>
					</g>
					<g>
						
							<rect x="28.719" y="71.357" transform="matrix(-0.7071 -0.7071 0.7071 -0.7071 -3.5117 147.4097)" fill="#2E7275" width="0.109" height="6.15"/>
					</g>
					<g>
						<rect x="29.28" y="75.683" fill="#2E7275" width="1.667" height="0.108"/>
					</g>
					<g>
						<rect x="29.28" y="74.895" fill="#2E7275" width="1.667" height="0.108"/>
					</g>
					<g>
						<rect x="29.28" y="73.182" fill="#2E7275" width="1.667" height="0.109"/>
					</g>
				</g>
				<g>
					<g>
						<path fill="#2E7275" d="M31.11,72.422h-4.675v-4.675h4.675V72.422z M26.761,72.096h4.023v-4.022h-4.023V72.096z"/>
					</g>
					<g>
						<rect x="29.226" y="67.91" fill="#2E7275" width="0.109" height="4.349"/>
					</g>
					<g>
						<rect x="29.951" y="67.91" fill="#2E7275" width="0.108" height="4.349"/>
					</g>
					<g>
						<rect x="27.849" y="67.91" fill="#2E7275" width="0.109" height="4.349"/>
					</g>
					<g>
						
							<rect x="25.701" y="70.031" transform="matrix(-0.7071 -0.7071 0.7071 -0.7071 -0.4321 139.9914)" fill="#2E7275" width="6.151" height="0.109"/>
					</g>
					<g>
						
							<rect x="28.719" y="67.008" transform="matrix(-0.7048 -0.7094 0.7094 -0.7048 -0.6609 139.8925)" fill="#2E7275" width="0.108" height="6.151"/>
					</g>
					<g>
						<rect x="29.28" y="71.334" fill="#2E7275" width="1.667" height="0.108"/>
					</g>
					<g>
						<rect x="29.28" y="70.545" fill="#2E7275" width="1.667" height="0.109"/>
					</g>
					<g>
						<rect x="29.28" y="68.833" fill="#2E7275" width="1.667" height="0.108"/>
					</g>
				</g>
				<g>
					<g>
						<path fill="#2E7275" d="M31.11,68.073h-4.675v-4.675h4.675V68.073z M26.761,67.747h4.023v-4.022h-4.023V67.747z"/>
					</g>
					<g>
						<rect x="29.226" y="63.561" fill="#2E7275" width="0.109" height="4.35"/>
					</g>
					<g>
						<rect x="29.951" y="63.561" fill="#2E7275" width="0.108" height="4.35"/>
					</g>
					<g>
						<rect x="27.849" y="63.561" fill="#2E7275" width="0.109" height="4.35"/>
					</g>
					<g>
						
							<rect x="25.694" y="65.679" transform="matrix(-0.7072 -0.707 0.707 -0.7072 2.6392 132.5598)" fill="#2E7275" width="6.151" height="0.109"/>
					</g>
					<g>
						
							<rect x="28.718" y="62.659" transform="matrix(-0.7071 -0.7071 0.7071 -0.7071 2.6369 132.561)" fill="#2E7275" width="0.109" height="6.15"/>
					</g>
					<g>
						<rect x="29.28" y="66.984" fill="#2E7275" width="1.667" height="0.109"/>
					</g>
					<g>
						<rect x="29.28" y="66.196" fill="#2E7275" width="1.667" height="0.108"/>
					</g>
					<g>
						<rect x="29.28" y="64.484" fill="#2E7275" width="1.667" height="0.108"/>
					</g>
				</g>
				<g>
					<g>
						<path fill="#2E7275" d="M31.11,63.725h-4.675v-4.676h4.675V63.725z M26.761,63.398h4.023v-4.023h-4.023V63.398z"/>
					</g>
					<g>
						<rect x="29.226" y="59.212" fill="#2E7275" width="0.109" height="4.349"/>
					</g>
					<g>
						<rect x="29.951" y="59.212" fill="#2E7275" width="0.108" height="4.349"/>
					</g>
					<g>
						<rect x="27.849" y="59.212" fill="#2E7275" width="0.109" height="4.349"/>
					</g>
					<g>
						
							<rect x="25.695" y="61.33" transform="matrix(-0.7071 -0.7071 0.7071 -0.7071 5.7075 125.1337)" fill="#2E7275" width="6.15" height="0.109"/>
					</g>
					<g>
						
							<rect x="28.718" y="58.311" transform="matrix(-0.7071 -0.7071 0.7071 -0.7071 5.7115 125.1382)" fill="#2E7275" width="0.109" height="6.15"/>
					</g>
					<g>
						<rect x="29.28" y="62.636" fill="#2E7275" width="1.667" height="0.108"/>
					</g>
					<g>
						<rect x="29.28" y="61.848" fill="#2E7275" width="1.667" height="0.108"/>
					</g>
					<g>
						<rect x="29.28" y="60.135" fill="#2E7275" width="1.667" height="0.108"/>
					</g>
				</g>
				<g>
					<g>
						<path fill="#2E7275" d="M31.11,59.375h-4.675V54.7h4.675V59.375z M26.761,59.049h4.023v-4.022h-4.023V59.049z"/>
					</g>
					<g>
						<rect x="29.226" y="54.863" fill="#2E7275" width="0.109" height="4.349"/>
					</g>
					<g>
						<rect x="29.951" y="54.863" fill="#2E7275" width="0.108" height="4.349"/>
					</g>
					<g>
						<rect x="27.849" y="54.863" fill="#2E7275" width="0.109" height="4.349"/>
					</g>
					<g>
						
							<rect x="25.7" y="56.983" transform="matrix(-0.7071 -0.7071 0.7071 -0.7071 8.7921 117.7175)" fill="#2E7275" width="6.151" height="0.109"/>
					</g>
					<g>
						
							<rect x="28.719" y="53.962" transform="matrix(-0.7048 -0.7094 0.7094 -0.7048 8.594 117.6496)" fill="#2E7275" width="0.108" height="6.151"/>
					</g>
					<g>
						<rect x="29.28" y="58.286" fill="#2E7275" width="1.667" height="0.109"/>
					</g>
					<g>
						<rect x="29.28" y="57.498" fill="#2E7275" width="1.667" height="0.109"/>
					</g>
					<g>
						<rect x="29.28" y="55.786" fill="#2E7275" width="1.667" height="0.108"/>
					</g>
				</g>
				<g>
					<g>
						<path fill="#2E7275" d="M31.11,55.026h-4.675V50.35h4.675V55.026z M26.761,54.7h4.023v-4.023h-4.023V54.7z"/>
					</g>
					<g>
						<rect x="29.226" y="50.514" fill="#2E7275" width="0.109" height="4.35"/>
					</g>
					<g>
						<rect x="29.951" y="50.514" fill="#2E7275" width="0.108" height="4.35"/>
					</g>
					<g>
						<rect x="27.849" y="50.514" fill="#2E7275" width="0.109" height="4.35"/>
					</g>
					<g>
						
							<rect x="25.695" y="52.633" transform="matrix(-0.7071 -0.7071 0.7071 -0.7071 11.8576 110.2861)" fill="#2E7275" width="6.15" height="0.109"/>
					</g>
					<g>
						
							<rect x="28.718" y="49.613" transform="matrix(-0.7071 -0.7071 0.7071 -0.7071 11.8624 110.2886)" fill="#2E7275" width="0.109" height="6.15"/>
					</g>
					<g>
						<rect x="29.28" y="53.938" fill="#2E7275" width="1.667" height="0.108"/>
					</g>
					<g>
						<rect x="29.28" y="53.149" fill="#2E7275" width="1.667" height="0.108"/>
					</g>
					<g>
						<rect x="29.28" y="51.437" fill="#2E7275" width="1.667" height="0.109"/>
					</g>
				</g>
				<g>
					<g>
						<path fill="#2E7275" d="M31.11,50.677h-4.675v-4.675h4.675V50.677z M26.761,50.351h4.023v-4.022h-4.023V50.351z"/>
					</g>
					<g>
						<rect x="29.226" y="46.165" fill="#2E7275" width="0.109" height="4.349"/>
					</g>
					<g>
						<rect x="29.951" y="46.165" fill="#2E7275" width="0.108" height="4.349"/>
					</g>
					<g>
						<rect x="27.849" y="46.165" fill="#2E7275" width="0.109" height="4.349"/>
					</g>
					<g>
						
							<rect x="25.701" y="48.285" transform="matrix(-0.7071 -0.7071 0.7071 -0.7071 14.9388 102.8675)" fill="#2E7275" width="6.15" height="0.109"/>
					</g>
					<g>
						
							<rect x="28.718" y="45.263" transform="matrix(-0.7071 -0.7071 0.7071 -0.7071 14.9367 102.8642)" fill="#2E7275" width="0.109" height="6.151"/>
					</g>
					<g>
						<rect x="29.28" y="49.589" fill="#2E7275" width="1.667" height="0.108"/>
					</g>
					<g>
						<rect x="29.28" y="48.8" fill="#2E7275" width="1.667" height="0.109"/>
					</g>
					<g>
						<rect x="29.28" y="47.088" fill="#2E7275" width="1.667" height="0.108"/>
					</g>
				</g>
				<g>
					<g>
						<path fill="#2E7275" d="M31.11,46.328h-4.675v-4.676h4.675V46.328z M26.761,46.002h4.023v-4.023h-4.023V46.002z"/>
					</g>
					<g>
						<rect x="29.226" y="41.815" fill="#2E7275" width="0.109" height="4.35"/>
					</g>
					<g>
						<rect x="29.951" y="41.815" fill="#2E7275" width="0.108" height="4.35"/>
					</g>
					<g>
						<rect x="27.849" y="41.815" fill="#2E7275" width="0.109" height="4.35"/>
					</g>
					<g>
						
							<rect x="25.695" y="43.935" transform="matrix(-0.7071 -0.7071 0.7071 -0.7071 18.0076 95.4385)" fill="#2E7275" width="6.15" height="0.109"/>
					</g>
					<g>
						
							<rect x="28.718" y="40.914" transform="matrix(-0.7071 -0.7071 0.7071 -0.7071 18.013 95.4397)" fill="#2E7275" width="0.109" height="6.15"/>
					</g>
					<g>
						<rect x="29.28" y="45.239" fill="#2E7275" width="1.667" height="0.108"/>
					</g>
					<g>
						<rect x="29.28" y="44.451" fill="#2E7275" width="1.667" height="0.108"/>
					</g>
					<g>
						<rect x="29.28" y="42.738" fill="#2E7275" width="1.667" height="0.109"/>
					</g>
				</g>
				<g>
					<g>
						<path fill="#2E7275" d="M31.11,41.979h-4.675v-4.675h4.675V41.979z M26.761,41.652h4.023V37.63h-4.023V41.652z"/>
					</g>
					<g>
						<rect x="29.226" y="37.467" fill="#2E7275" width="0.109" height="4.349"/>
					</g>
					<g>
						<rect x="29.951" y="37.467" fill="#2E7275" width="0.108" height="4.349"/>
					</g>
					<g>
						<rect x="27.849" y="37.467" fill="#2E7275" width="0.109" height="4.349"/>
					</g>
					<g>
						
							<rect x="25.695" y="39.585" transform="matrix(-0.7071 -0.7071 0.7071 -0.7071 21.0839 88.014)" fill="#2E7275" width="6.15" height="0.11"/>
					</g>
					<g>
						
							<rect x="28.718" y="36.565" transform="matrix(-0.7093 -0.7049 0.7049 -0.7093 21.2405 88.0404)" fill="#2E7275" width="0.109" height="6.151"/>
					</g>
					<g>
						<rect x="29.28" y="40.891" fill="#2E7275" width="1.667" height="0.108"/>
					</g>
					<g>
						<rect x="29.28" y="40.102" fill="#2E7275" width="1.667" height="0.109"/>
					</g>
					<g>
						<rect x="29.28" y="38.39" fill="#2E7275" width="1.667" height="0.108"/>
					</g>
				</g>
				<g>
					<g>
						<path fill="#2E7275" d="M31.11,37.63h-4.675v-4.675h4.675V37.63z M26.761,37.304h4.023v-4.022h-4.023V37.304z"/>
					</g>
					<g>
						<rect x="29.226" y="33.118" fill="#2E7275" width="0.109" height="4.349"/>
					</g>
					<g>
						<rect x="29.951" y="33.118" fill="#2E7275" width="0.108" height="4.349"/>
					</g>
					<g>
						<rect x="27.849" y="33.118" fill="#2E7275" width="0.109" height="4.349"/>
					</g>
					<g>
						
							<rect x="25.7" y="35.238" transform="matrix(-0.7071 -0.7071 0.7071 -0.7071 24.1694 80.595)" fill="#2E7275" width="6.151" height="0.109"/>
					</g>
					<g>
						
							<rect x="28.718" y="32.215" transform="matrix(-0.7071 -0.7071 0.7071 -0.7071 24.1654 80.5888)" fill="#2E7275" width="0.11" height="6.15"/>
					</g>
					<g>
						<rect x="29.28" y="36.541" fill="#2E7275" width="1.667" height="0.109"/>
					</g>
					<g>
						<rect x="29.28" y="35.753" fill="#2E7275" width="1.667" height="0.108"/>
					</g>
					<g>
						<rect x="29.28" y="34.041" fill="#2E7275" width="1.667" height="0.108"/>
					</g>
				</g>
				<g>
					<g>
						<path fill="#2E7275" d="M31.11,33.281h-4.675v-4.676h4.675V33.281z M26.761,32.955h4.023v-4.023h-4.023V32.955z"/>
					</g>
					<g>
						<rect x="29.226" y="28.769" fill="#2E7275" width="0.109" height="4.35"/>
					</g>
					<g>
						<rect x="29.951" y="28.769" fill="#2E7275" width="0.108" height="4.35"/>
					</g>
					<g>
						<rect x="27.849" y="28.769" fill="#2E7275" width="0.109" height="4.35"/>
					</g>
					<g>
						
							<rect x="25.696" y="30.889" transform="matrix(-0.7071 -0.7071 0.7071 -0.7071 27.2345 73.1676)" fill="#2E7275" width="6.15" height="0.109"/>
					</g>
					<g>
						
							<rect x="28.718" y="27.867" transform="matrix(-0.7071 -0.7071 0.7071 -0.7071 27.2385 73.1673)" fill="#2E7275" width="0.109" height="6.15"/>
					</g>
					<g>
						<rect x="29.28" y="32.192" fill="#2E7275" width="1.667" height="0.108"/>
					</g>
					<g>
						<rect x="29.28" y="31.404" fill="#2E7275" width="1.667" height="0.108"/>
					</g>
					<g>
						<rect x="29.28" y="29.691" fill="#2E7275" width="1.667" height="0.109"/>
					</g>
				</g>
				<g>
					<g>
						<path fill="#2E7275" d="M30.784,29.04h-4.021v-4.022h4.021V29.04z M27.088,28.714h3.369v-3.37h-3.369V28.714z"/>
					</g>
					<g>
						<rect x="29.149" y="25.182" fill="#2E7275" width="0.109" height="3.695"/>
					</g>
					<g>
						<rect x="29.766" y="25.182" fill="#2E7275" width="0.108" height="3.695"/>
					</g>
					<g>
						<rect x="27.979" y="25.182" fill="#2E7275" width="0.108" height="3.695"/>
					</g>
					<g>
						<polygon fill="#2E7275" points="11.87,33.889 11.816,33.794 26.934,25.113 26.963,25.143 30.659,28.838 30.582,28.916 
							26.916,25.249 						"/>
					</g>
					<g>
						<path fill="#2E7275" d="M33.198,37.031l-2.404-10.818l-0.413-0.715l-3.417,3.418l-0.077-0.078l3.438-3.438l-0.259-0.446
							l0.095-0.055l0.242,0.422l0.248-0.248l0.245,1.1l4.82,8.34l-0.029,0.03L33.198,37.031z M30.975,26.525l2.286,10.289
							l2.32-2.319L30.975,26.525z M30.46,25.418l0.255,0.441l-0.126-0.57L30.46,25.418z"/>
					</g>
					<g>
						<rect x="29.204" y="28.082" fill="#2E7275" width="1.417" height="0.109"/>
					</g>
					<g>
						<rect x="29.204" y="27.412" fill="#2E7275" width="1.417" height="0.109"/>
					</g>
					<g>
						<rect x="29.204" y="25.957" fill="#2E7275" width="1.417" height="0.109"/>
					</g>
				</g>
				<g>
					<g>
						<path fill="#2E7275" d="M30.277,25.09h-3.008v-3.008h3.008V25.09z M27.595,24.764h2.355v-2.355h-2.355V24.764z"/>
					</g>
					<g>
						<rect x="29.031" y="22.245" fill="#2E7275" width="0.108" height="2.682"/>
					</g>
					<g>
						<rect x="29.478" y="22.245" fill="#2E7275" width="0.109" height="2.682"/>
					</g>
					<g>
						<rect x="28.182" y="22.245" fill="#2E7275" width="0.108" height="2.682"/>
					</g>
					<g>
						
							<rect x="26.876" y="23.53" transform="matrix(-0.7072 -0.707 0.707 -0.7072 32.4437 60.6063)" fill="#2E7275" width="3.792" height="0.109"/>
					</g>
					<g>
						<polygon fill="#2E7275" points="66.914,34.556 30.128,22.307 27.47,24.966 27.394,24.888 30.099,22.184 30.131,22.193 
							66.948,34.452 						"/>
					</g>
					<g>
						<rect x="29.085" y="24.335" fill="#2E7275" width="1.027" height="0.108"/>
					</g>
					<g>
						<rect x="29.085" y="23.85" fill="#2E7275" width="1.027" height="0.108"/>
					</g>
					<g>
						<rect x="29.085" y="22.793" fill="#2E7275" width="1.027" height="0.109"/>
					</g>
				</g>
			</g>
			<g>
				<g>
					<path fill="#2E7275" d="M34.563,90.742h-11.58v-1.305h11.58V90.742z M23.418,90.307h10.709v-0.435H23.418V90.307z"/>
				</g>
				<g>
					<path fill="#2E7275" d="M31.745,89.871h-5.944v-1.305h5.944V89.871z M26.236,89.436h5.074v-0.435h-5.074V89.436z"/>
				</g>
				<g>
					<path fill="#2E7275" d="M31.745,89.082h-5.944v-1.304h5.944V89.082z M26.236,88.646h5.074v-0.434h-5.074V88.646z"/>
				</g>
			</g>
			<g>
				<g>
					<path fill="#2E7275" d="M31.745,60.258h-5.944v-1.304h5.944V60.258z M26.236,59.823h5.074v-0.435h-5.074V59.823z"/>
				</g>
				<g>
					<path fill="#2E7275" d="M31.745,59.47h-5.944v-1.304h5.944V59.47z M26.236,59.035h5.074V58.6h-5.074V59.035z"/>
				</g>
			</g>
			<g>
				<g>
					<g>
						<path fill="#2E7275" d="M19.583,37.273H16.65V34.34h2.934V37.273z M16.977,36.947h2.28v-2.28h-2.28V36.947z"/>
					</g>
					<g>
						
							<rect x="16.277" y="35.752" transform="matrix(-0.7072 -0.707 0.707 -0.7072 5.616 73.9397)" fill="#2E7275" width="3.686" height="0.109"/>
					</g>
					<g>
						
							<rect x="18.065" y="33.965" transform="matrix(-0.7071 -0.7071 0.7071 -0.7071 5.6122 73.9414)" fill="#2E7275" width="0.109" height="3.687"/>
					</g>
				</g>
				<g>
					<g>
						<path fill="#2E7275" d="M22.19,37.273h-2.933V34.34h2.933V37.273z M19.583,36.947h2.28v-2.28h-2.28V36.947z"/>
					</g>
					<g>
						
							<rect x="18.884" y="35.752" transform="matrix(-0.7072 -0.707 0.707 -0.7072 10.0673 75.7832)" fill="#2E7275" width="3.686" height="0.109"/>
					</g>
					<g>
						
							<rect x="20.673" y="33.965" transform="matrix(-0.7026 -0.7116 0.7116 -0.7026 9.8081 75.716)" fill="#2E7275" width="0.108" height="3.687"/>
					</g>
				</g>
				<g>
					<g>
						<path fill="#2E7275" d="M11.863,37.273H8.93V34.34h2.933V37.273z M9.256,36.947h2.281v-2.28H9.256V36.947z"/>
					</g>
					<g>
						<polygon fill="#2E7275" points="11.662,37.149 9.008,34.495 9.063,34.459 27.402,22.2 27.462,22.29 9.179,34.513 
							11.74,37.072 						"/>
					</g>
					<g>
						
							<rect x="10.342" y="33.963" transform="matrix(-0.7071 -0.7071 0.7071 -0.7071 -7.5718 68.4774)" fill="#2E7275" width="0.109" height="3.687"/>
					</g>
				</g>
				<g>
					<g>
						<path fill="#2E7275" d="M38.418,37.273h-2.934V34.34h2.934V37.273z M35.812,36.947h2.281v-2.28h-2.281V36.947z"/>
					</g>
					<g>
						
							<rect x="35.111" y="35.752" transform="matrix(-0.7073 -0.7069 0.7069 -0.7073 37.7803 87.2562)" fill="#2E7275" width="3.686" height="0.11"/>
					</g>
					<g>
						
							<rect x="36.897" y="33.963" transform="matrix(-0.7071 -0.7071 0.7071 -0.7071 37.7611 87.2539)" fill="#2E7275" width="0.109" height="3.686"/>
					</g>
				</g>
				<g>
					<g>
						<path fill="#2E7275" d="M41.025,37.273h-2.933V34.34h2.933V37.273z M38.418,36.947h2.281v-2.28h-2.281V36.947z"/>
					</g>
					<g>
						
							<rect x="37.718" y="35.751" transform="matrix(-0.7071 -0.7071 0.7071 -0.7071 42.2169 89.0981)" fill="#2E7275" width="3.686" height="0.108"/>
					</g>
					<g>
						
							<rect x="39.508" y="33.963" transform="matrix(-0.7026 -0.7116 0.7116 -0.7026 41.8774 89.1164)" fill="#2E7275" width="0.108" height="3.687"/>
					</g>
				</g>
				<g>
					<g>
						<path fill="#2E7275" d="M43.632,37.273h-2.933V34.34h2.933V37.273z M41.025,36.947h2.281v-2.28h-2.281V36.947z"/>
					</g>
					<g>
						
							<rect x="40.325" y="35.751" transform="matrix(-0.7071 -0.7071 0.7071 -0.7071 46.6674 90.9411)" fill="#2E7275" width="3.686" height="0.109"/>
					</g>
					<g>
						
							<rect x="42.114" y="33.963" transform="matrix(-0.7071 -0.7071 0.7071 -0.7071 46.6672 90.9439)" fill="#2E7275" width="0.109" height="3.687"/>
					</g>
				</g>
				<g>
					<g>
						<path fill="#2E7275" d="M46.239,37.273h-2.933V34.34h2.933V37.273z M43.632,36.947h2.28v-2.28h-2.28V36.947z"/>
					</g>
					<g>
						
							<rect x="42.932" y="35.751" transform="matrix(-0.7073 -0.7069 0.7069 -0.7073 51.1337 92.7827)" fill="#2E7275" width="3.686" height="0.109"/>
					</g>
					<g>
						
							<rect x="44.722" y="33.964" transform="matrix(-0.7026 -0.7116 0.7116 -0.7026 50.7553 92.8269)" fill="#2E7275" width="0.108" height="3.686"/>
					</g>
				</g>
				<g>
					<g>
						<path fill="#2E7275" d="M48.846,37.273h-2.933V34.34h2.933V37.273z M46.239,36.947h2.281v-2.28h-2.281V36.947z"/>
					</g>
					<g>
						
							<rect x="45.539" y="35.751" transform="matrix(-0.7072 -0.707 0.707 -0.7072 55.5735 94.6271)" fill="#2E7275" width="3.686" height="0.109"/>
					</g>
					<g>
						
							<rect x="47.328" y="33.963" transform="matrix(-0.7071 -0.7071 0.7071 -0.7071 55.5678 94.6307)" fill="#2E7275" width="0.109" height="3.687"/>
					</g>
				</g>
				<g>
					<g>
						<path fill="#2E7275" d="M51.453,37.273H48.52V34.34h2.934V37.273z M48.846,36.947h2.281v-2.28h-2.281V36.947z"/>
					</g>
					<g>
						
							<rect x="48.147" y="35.751" transform="matrix(-0.7072 -0.707 0.707 -0.7072 60.0248 96.4706)" fill="#2E7275" width="3.686" height="0.109"/>
					</g>
					<g>
						
							<rect x="49.935" y="33.963" transform="matrix(-0.7071 -0.7071 0.7071 -0.7071 60.0191 96.474)" fill="#2E7275" width="0.109" height="3.687"/>
					</g>
				</g>
				<g>
					<g>
						<path fill="#2E7275" d="M54.06,37.273h-2.933V34.34h2.933V37.273z M51.453,36.947h2.28v-2.28h-2.28V36.947z"/>
					</g>
					<g>
						
							<rect x="50.75" y="35.752" transform="matrix(-0.7071 -0.7071 0.7071 -0.7071 64.4631 98.3138)" fill="#2E7275" width="3.686" height="0.109"/>
					</g>
					<g>
						
							<rect x="52.543" y="33.963" transform="matrix(-0.7026 -0.7116 0.7116 -0.7026 64.0709 98.3922)" fill="#2E7275" width="0.108" height="3.687"/>
					</g>
				</g>
				<g>
					<g>
						<path fill="#2E7275" d="M56.667,37.273h-2.934V34.34h2.934V37.273z M54.06,36.947h2.281v-2.28H54.06V36.947z"/>
					</g>
					<g>
						
							<rect x="53.36" y="35.751" transform="matrix(-0.7072 -0.707 0.707 -0.7072 68.9248 100.1571)" fill="#2E7275" width="3.686" height="0.11"/>
					</g>
					<g>
						
							<rect x="55.144" y="33.963" transform="matrix(-0.7071 -0.7071 0.7071 -0.7071 68.9116 100.1569)" fill="#2E7275" width="0.109" height="3.687"/>
					</g>
				</g>
				<g>
					<g>
						<path fill="#2E7275" d="M59.273,37.273H56.34V34.34h2.933V37.273z M56.667,36.947h2.281v-2.28h-2.281V36.947z"/>
					</g>
					<g>
						
							<rect x="55.967" y="35.751" transform="matrix(-0.7073 -0.7069 0.7069 -0.7073 73.3877 101.9974)" fill="#2E7275" width="3.686" height="0.11"/>
					</g>
					<g>
						
							<rect x="57.752" y="33.963" transform="matrix(-0.7071 -0.7071 0.7071 -0.7071 73.3627 102.0006)" fill="#2E7275" width="0.109" height="3.687"/>
					</g>
				</g>
				<g>
					<g>
						<path fill="#2E7275" d="M61.88,37.273h-2.934V34.34h2.934V37.273z M59.273,36.947h2.281v-2.28h-2.281V36.947z"/>
					</g>
					<g>
						
							<rect x="58.574" y="35.751" transform="matrix(-0.7072 -0.707 0.707 -0.7072 77.8266 103.8439)" fill="#2E7275" width="3.686" height="0.109"/>
					</g>
					<g>
						
							<rect x="60.359" y="33.963" transform="matrix(-0.7071 -0.7071 0.7071 -0.7071 77.8131 103.844)" fill="#2E7275" width="0.109" height="3.686"/>
					</g>
				</g>
				<g>
					<g>
						<path fill="#2E7275" d="M64.487,37.273h-2.933V34.34h2.933V37.273z M61.88,36.947h2.281v-2.28H61.88V36.947z"/>
					</g>
					<g>
						
							<rect x="61.181" y="35.75" transform="matrix(-0.7071 -0.7071 0.7071 -0.7071 82.2704 105.6869)" fill="#2E7275" width="3.686" height="0.109"/>
					</g>
					<g>
						
							<rect x="62.97" y="33.962" transform="matrix(-0.7026 -0.7116 0.7116 -0.7026 81.8257 105.8108)" fill="#2E7275" width="0.108" height="3.687"/>
					</g>
				</g>
				<g>
					<g>
						<path fill="#2E7275" d="M67.094,37.273h-2.933V34.34h2.933V37.273z M64.487,36.947h2.28v-2.28h-2.28V36.947z"/>
					</g>
					<g>
						
							<rect x="63.788" y="35.75" transform="matrix(-0.7071 -0.7071 0.7071 -0.7071 86.7217 107.5302)" fill="#2E7275" width="3.686" height="0.109"/>
					</g>
					<g>
						
							<rect x="65.577" y="33.962" transform="matrix(-0.7071 -0.7071 0.7071 -0.7071 86.7215 107.5331)" fill="#2E7275" width="0.109" height="3.687"/>
					</g>
					<g>
						<rect x="66.066" y="36.947" fill="#2E7275" width="3.733" height="0.326"/>
					</g>
				</g>
				<g>
					<g>
						<path fill="#2E7275" d="M12.929,39.567h-1.303v-5.944h1.303V39.567z M12.061,39.133h0.435v-5.074h-0.435V39.133z"/>
					</g>
					<g>
						<path fill="#2E7275" d="M13.718,39.567h-1.304v-5.944h1.304V39.567z M12.849,39.133h0.435v-5.074h-0.435V39.133z"/>
					</g>
				</g>
				<g>
					<g>
						<path fill="#2E7275" d="M14.586,39.567h-1.303v-5.944h1.303V39.567z M13.718,39.133h0.434v-5.074h-0.434V39.133z"/>
					</g>
					<g>
						<path fill="#2E7275" d="M15.375,39.567h-1.305v-5.944h1.305V39.567z M14.506,39.133h0.434v-5.074h-0.434V39.133z"/>
					</g>
				</g>
				<g>
					<g>
						<path fill="#2E7275" d="M16.243,39.567H14.94v-5.944h1.304V39.567z M15.375,39.133h0.434v-5.074h-0.434V39.133z"/>
					</g>
					<g>
						<path fill="#2E7275" d="M17.031,39.567h-1.305v-5.944h1.305V39.567z M16.163,39.133h0.434v-5.074h-0.434V39.133z"/>
					</g>
				</g>
				<g>
					
						<rect x="34.182" y="33.964" transform="matrix(-0.7049 -0.7093 0.7093 -0.7049 33.1548 85.409)" fill="#2E7275" width="0.327" height="3.686"/>
				</g>
				<g>
					
						<rect x="66.388" y="35.645" transform="matrix(-0.707 -0.7072 0.7072 -0.707 91.1444 109.3785)" fill="#2E7275" width="3.687" height="0.326"/>
				</g>
			</g>
			<g>
				<rect x="9.093" y="36.947" fill="#2E7275" width="26.555" height="0.326"/>
			</g>
			<g>
				<path fill="#2E7275" d="M32.172,37.779l-1.231-0.856h-4.229l-1.767,1.874v2.73h-0.428v0.588h2.194v0.643h4.176v-0.695h1.178
					l0.963-1.928L32.172,37.779z M30.352,40.135h-0.91v-2.248h0.91V40.135z M31.958,41.313l-0.963-1.178v-2.248h0.749l0.75,2.248
					L31.958,41.313z"/>
			</g>
			<g>
				
					<rect x="21.817" y="22.854" transform="matrix(-0.653 -0.7573 0.7573 -0.653 13.8033 65.3445)" fill="#2E7275" width="0.108" height="13.313"/>
			</g>
			<g>
				<path fill="#2E7275" d="M61.717,46.273c-0.48,0-0.87-0.391-0.87-0.87v-7.531c0-0.479,0.39-0.87,0.87-0.87
					c0.479,0,0.87,0.391,0.87,0.87v7.531C62.586,45.883,62.196,46.273,61.717,46.273z M61.717,37.22
					c-0.36,0-0.652,0.292-0.652,0.652v7.531c0,0.36,0.292,0.653,0.652,0.653s0.652-0.293,0.652-0.653v-7.531
					C62.369,37.512,62.077,37.22,61.717,37.22z"/>
			</g>
			<g>
				<path fill="#2E7275" d="M60.98,48.847c-0.479,0-0.87-0.39-0.87-0.87h0.218c0,0.36,0.293,0.652,0.651,0.652
					c0.36,0,0.653-0.292,0.653-0.652v-1.632h0.217v1.632C61.851,48.457,61.46,48.847,60.98,48.847z"/>
			</g>
			<g>
				<path fill="#2E7275" d="M62.453,46.165c0,0.406-0.329,0.735-0.736,0.735l0,0c-0.407,0-0.736-0.329-0.736-0.735l0,0
					c0-0.406,0.33-0.736,0.736-0.736l0,0C62.124,45.429,62.453,45.759,62.453,46.165L62.453,46.165z"/>
			</g>
		</g>
	</g>
	<g id="truck2">
		<g>
			<g>
				<path fill="#C1C6C6" d="M165.353,61.468c-0.006,0.236,5.99,0.484,13.39,0.553c7.398,0.069,13.403-0.066,13.409-0.302
					c0.007-0.237-5.988-0.484-13.389-0.555C171.365,61.097,165.36,61.23,165.353,61.468z"/>
			</g>
		</g>
		<g>
			<path fill="#2E7275" d="M189.892,56.563c0.563,0,1.01-0.454,1.01-1.017V53.85v-1.019v-4.58c0,0-0.2-0.84-1.049-0.84h-2.375
				c0,0-3.054,1-2.998,5h-7.295c-0.562,0-1.283,0.876-1.283,1.438v1.696c0,0.082,0.144,0.161,0.16,0.237l0.061,0.666l0.328,0.148
				l1.299-0.035 M187.675,52.412h-2.742c0,0-0.114-4,2.742-4h1.669C189.344,48.412,189.682,51.412,187.675,52.412z"/>
			<path fill="#2E7275" d="M176.219,55.793c-0.009-0.027-0.017-0.094-0.023-0.123l-1.158,0.742h-3.28c0,0,0.113-1-0.48-1h-2.347
				c0,0,1.159,1.383,0.509,2.684c0,0-0.904,2.309-3.109,2.421l0.594,0.896h4.453c0,0,0.354-0.352,0.41-1.256l5.958-3.744h-0.559
				C176.736,56.412,176.355,56.197,176.219,55.793z M171.902,58.459v-1.047h2.09L171.902,58.459z"/>
			<polyline fill="#2E7275" points="179.902,60.412 187.562,60.412 187.101,58.939 186.902,58.825 186.902,56.412 180.902,56.412 
				180.902,58.412 			"/>
			<path fill="#2E7275" d="M179.08,60.409h1.451v-1.584h-1.451C179.08,58.825,179.758,59.617,179.08,60.409z"/>
			<path fill="#2E7275" d="M188.523,60.409c-0.678-0.792,0-1.584,0-1.584h-1.546v1.584H188.523z"/>
		</g>
		<g>
			<g>
				<path fill="#112D2D" d="M189.401,61.683h-11.339c-1.2,0-2.178-0.977-2.178-2.177c0-1.201,0.978-2.178,2.178-2.178h11.339
					c1.2,0,2.178,0.977,2.178,2.178C191.578,60.706,190.601,61.683,189.401,61.683z M178.062,57.894c-0.889,0-1.61,0.724-1.61,1.612
					c0,0.888,0.723,1.611,1.61,1.611h11.339c0.89,0,1.611-0.723,1.611-1.611c0-0.888-0.723-1.612-1.611-1.612H178.062z"/>
			</g>
			<circle fill="#112D2D" cx="177.92" cy="59.618" r="0.764"/>
			<circle fill="#112D2D" cx="189.57" cy="59.618" r="0.764"/>
		</g>
	</g>
	<g id="truck1">
		<g>
			<g>
				<path fill="#C1C6C6" d="M186.853,73.223c-0.007,0.263,6.661,0.538,14.889,0.614c8.228,0.077,14.903-0.073,14.91-0.335
					c0.008-0.265-6.659-0.539-14.888-0.617C193.538,72.81,186.861,72.959,186.853,73.223z"/>
			</g>
		</g>
		<g>
			<path fill="#2E7275" d="M213.958,67.77c0.625,0,0.942-0.505,0.942-1.131v-1.886V63.62v-5.093c0,0,0.138-1.115-0.807-1.115h-2.641
				c0,0-3.396,1-3.333,6h-8.112c-0.624,0-1.107,0.715-1.107,1.341v1.886c0,0.092,0,0.18,0.021,0.264l-0.016,0.741l0.325,0.165
				l1.334-0.039 M211.674,63.412h-3.05c0,0-0.127-5,3.05-5h1.854C213.53,58.412,213.906,62.412,211.674,63.412z"/>
			<path fill="#2E7275" d="M198.936,66.818c-0.01-0.031-0.019-0.151-0.025-0.185l-1.289,0.778h-3.647c0,0,0.126-1-0.534-1h-2.608
				c0,0,1.289,1.576,0.564,3.021c0,0-1.007,2.713-3.458,2.838l0.66,1.141h4.951c0,0,0.394-0.611,0.456-1.615l6.625-4.385h-0.62
				C199.51,67.412,199.086,67.268,198.936,66.818z M193.902,69.877v-1.465h2.557L193.902,69.877z"/>
			<polyline fill="#2E7275" points="202.902,72.412 211.548,72.412 211.08,70.593 210.902,70.284 210.902,67.412 203.902,67.412 
				203.902,69.412 			"/>
			<path fill="#2E7275" d="M202.117,72.045h1.612v-1.761h-1.612C202.117,70.284,202.871,71.165,202.117,72.045z"/>
			<path fill="#2E7275" d="M212.617,72.045c-0.755-0.88,0-1.761,0-1.761h-1.72v1.761H212.617z"/>
		</g>
		<g>
			<g>
				<path fill="#112D2D" d="M213.593,73.461h-12.608c-1.335,0-2.422-1.085-2.422-2.42c0-1.336,1.087-2.422,2.422-2.422h12.608
					c1.334,0,2.42,1.086,2.42,2.422C216.013,72.376,214.927,73.461,213.593,73.461z M200.985,69.248
					c-0.987,0-1.792,0.805-1.792,1.793s0.805,1.792,1.792,1.792h12.608c0.988,0,1.791-0.804,1.791-1.792s-0.803-1.793-1.791-1.793
					H200.985z"/>
			</g>
			<circle fill="#112D2D" cx="200.827" cy="71.166" r="0.849"/>
			<circle fill="#112D2D" cx="213.781" cy="71.166" r="0.85"/>
		</g>
	</g>
</g>
</svg>
