<?xml version="1.0" encoding="utf-8"?>
<!-- Generator: Adobe Illustrator 16.0.0, SVG Export Plug-In . SVG Version: 6.00 Build 0)  -->
<!DOCTYPE svg PUBLIC "-//W3C//DTD SVG 1.1//EN" "http://www.w3.org/Graphics/SVG/1.1/DTD/svg11.dtd">
<svg version="1.1" id="Layer_1" xmlns="http://www.w3.org/2000/svg" xmlns:xlink="http://www.w3.org/1999/xlink" x="0px" y="0px"
	 width="575px" height="60px" viewBox="0 0 575 60" enable-background="new 0 0 575 60" xml:space="preserve">
<g>
	<g>
		<path fill="#193F3F" d="M31.263,20.116c0.232,0.232,0.349,0.517,0.349,0.853s-0.116,0.62-0.349,0.852
			c-0.231,0.232-0.516,0.349-0.852,0.349h-3.84v14.4c0,0.336-0.116,0.619-0.348,0.852c-0.232,0.232-0.517,0.348-0.853,0.348
			s-0.62-0.115-0.852-0.348c-0.232-0.232-0.349-0.516-0.349-0.852v-14.4h-3.792c-0.32,0-0.6-0.116-0.84-0.349
			c-0.24-0.231-0.36-0.516-0.36-0.852s0.12-0.62,0.36-0.853c0.24-0.231,0.52-0.348,0.84-0.348h10.032
			C30.747,19.768,31.031,19.884,31.263,20.116z"/>
		<path fill="#193F3F" d="M50.163,19.768c0.336,0,0.619,0.116,0.852,0.348c0.231,0.232,0.348,0.517,0.348,0.853v15.6
			c0,0.336-0.116,0.619-0.348,0.852c-0.232,0.232-0.516,0.348-0.852,0.348c-0.32,0-0.601-0.115-0.84-0.348
			c-0.24-0.232-0.36-0.516-0.36-0.852V26.104l-8.616,8.617v1.848c0,0.336-0.12,0.619-0.36,0.852c-0.239,0.232-0.52,0.348-0.84,0.348
			c-0.336,0-0.62-0.115-0.852-0.348c-0.232-0.232-0.349-0.516-0.349-0.852v-15.6c0-0.336,0.116-0.62,0.349-0.853
			c0.231-0.231,0.516-0.348,0.852-0.348c0.32,0,0.601,0.116,0.84,0.348c0.24,0.232,0.36,0.517,0.36,0.853v10.368l8.616-8.64v-1.728
			c0-0.336,0.12-0.62,0.36-0.853C49.563,19.884,49.843,19.768,50.163,19.768z"/>
		<path fill="#193F3F" d="M60.027,37.768c-0.336,0-0.62-0.115-0.852-0.348c-0.232-0.232-0.349-0.516-0.349-0.852v-15.6
			c0-0.336,0.116-0.62,0.349-0.853c0.231-0.231,0.516-0.348,0.852-0.348c0.32,0,0.6,0.116,0.84,0.348
			c0.24,0.232,0.36,0.517,0.36,0.853v15.6c0,0.336-0.12,0.619-0.36,0.852S60.348,37.768,60.027,37.768z"/>
		<path fill="#193F3F" d="M72.459,22.625c-0.561,0.304-1.017,0.728-1.368,1.271l8.664,8.665c0.176,0.176,0.292,0.379,0.349,0.611
			c0.056,0.232,0.035,0.469-0.061,0.709c-0.225,0.559-0.524,1.08-0.9,1.559c-0.376,0.48-0.819,0.896-1.332,1.248
			c-0.96,0.641-2.031,1-3.216,1.08h-0.12h-5.208c-0.319,0-0.6-0.115-0.84-0.348c-0.239-0.232-0.359-0.516-0.359-0.852
			s0.12-0.621,0.359-0.852c0.24-0.232,0.521-0.35,0.84-0.35h5.017c0.655,0,1.264-0.15,1.824-0.455
			c0.56-0.305,1.016-0.721,1.367-1.248L68.811,25c-0.111-0.097-0.2-0.217-0.264-0.36c-0.016-0.016-0.023-0.04-0.023-0.072
			c-0.112-0.24-0.129-0.479-0.049-0.72v-0.072c0.017-0.016,0.024-0.031,0.024-0.048v-0.024l0.024-0.023v-0.024
			c0.464-1.151,1.207-2.079,2.231-2.784c0.496-0.352,1.023-0.615,1.584-0.792c0.56-0.176,1.144-0.279,1.752-0.312h0.097h5.111
			c0.336,0,0.62,0.116,0.853,0.348c0.231,0.232,0.348,0.517,0.348,0.853s-0.116,0.62-0.348,0.852
			c-0.232,0.232-0.517,0.349-0.853,0.349h-5.016C73.627,22.168,73.019,22.321,72.459,22.625z"/>
		<path fill="#193F3F" d="M102.771,22.625c-0.561,0.304-1.017,0.728-1.368,1.271l8.664,8.665c0.176,0.176,0.292,0.379,0.349,0.611
			c0.056,0.232,0.035,0.469-0.061,0.709c-0.225,0.559-0.524,1.08-0.9,1.559c-0.376,0.48-0.819,0.896-1.332,1.248
			c-0.96,0.641-2.031,1-3.216,1.08h-0.12h-5.208c-0.319,0-0.6-0.115-0.84-0.348c-0.239-0.232-0.359-0.516-0.359-0.852
			s0.12-0.621,0.359-0.852c0.24-0.232,0.521-0.35,0.84-0.35h5.017c0.655,0,1.264-0.15,1.824-0.455
			c0.56-0.305,1.016-0.721,1.367-1.248L99.122,25c-0.111-0.097-0.2-0.217-0.264-0.36c-0.016-0.016-0.023-0.04-0.023-0.072
			c-0.112-0.24-0.129-0.479-0.049-0.72v-0.072c0.017-0.016,0.024-0.031,0.024-0.048v-0.024l0.024-0.023v-0.024
			c0.464-1.151,1.207-2.079,2.231-2.784c0.496-0.352,1.023-0.615,1.584-0.792c0.56-0.176,1.144-0.279,1.752-0.312h0.097h5.111
			c0.336,0,0.62,0.116,0.853,0.348c0.231,0.232,0.348,0.517,0.348,0.853s-0.116,0.62-0.348,0.852
			c-0.232,0.232-0.517,0.349-0.853,0.349h-5.016C103.938,22.168,103.33,22.321,102.771,22.625z"/>
		<path fill="#193F3F" d="M118.658,37.768c-0.336,0-0.62-0.115-0.852-0.348c-0.232-0.232-0.349-0.516-0.349-0.852v-15.6
			c0-0.336,0.116-0.62,0.349-0.853c0.231-0.231,0.516-0.348,0.852-0.348c0.32,0,0.6,0.116,0.84,0.348
			c0.24,0.232,0.36,0.517,0.36,0.853v15.6c0,0.336-0.12,0.619-0.36,0.852S118.979,37.768,118.658,37.768z"/>
		<path fill="#193F3F" d="M138.565,20.116c0.232,0.232,0.349,0.517,0.349,0.853s-0.116,0.62-0.349,0.852
			c-0.231,0.232-0.516,0.349-0.852,0.349h-3.84v14.4c0,0.336-0.116,0.619-0.348,0.852c-0.232,0.232-0.517,0.348-0.853,0.348
			s-0.62-0.115-0.852-0.348c-0.232-0.232-0.349-0.516-0.349-0.852v-14.4h-3.792c-0.32,0-0.6-0.116-0.84-0.349
			c-0.24-0.231-0.36-0.516-0.36-0.852s0.12-0.62,0.36-0.853c0.24-0.231,0.52-0.348,0.84-0.348h10.032
			C138.05,19.768,138.334,19.884,138.565,20.116z"/>
		<path fill="#193F3F" d="M157.081,35.717c0.24,0.23,0.36,0.516,0.36,0.852s-0.12,0.619-0.36,0.852
			c-0.239,0.232-0.52,0.348-0.84,0.348h-5.016c-0.832,0-1.624-0.156-2.376-0.467c-0.752-0.313-1.425-0.764-2.016-1.357
			c-0.593-0.592-1.045-1.264-1.356-2.016c-0.313-0.752-0.468-1.543-0.468-2.375v-5.569c0-0.832,0.155-1.624,0.468-2.376
			c0.312-0.752,0.764-1.424,1.356-2.016c0.591-0.592,1.264-1.044,2.016-1.356c0.752-0.312,1.544-0.468,2.376-0.468h5.016
			c0.32,0,0.601,0.116,0.84,0.348c0.24,0.232,0.36,0.517,0.36,0.853s-0.12,0.62-0.36,0.852c-0.239,0.232-0.52,0.349-0.84,0.349
			h-5.016c-0.528,0-1.024,0.1-1.488,0.3s-0.868,0.472-1.212,0.815c-0.344,0.345-0.616,0.748-0.815,1.212
			c-0.201,0.465-0.301,0.961-0.301,1.488v3.433l3.408-3.408c0.24-0.224,0.524-0.336,0.853-0.336c0.327,0,0.611,0.112,0.852,0.336
			c0.224,0.24,0.336,0.524,0.336,0.852c0,0.328-0.112,0.612-0.336,0.853l-4.944,4.944c0.225,0.783,0.672,1.432,1.345,1.943
			c0.672,0.514,1.439,0.768,2.304,0.768h5.016C156.562,35.367,156.842,35.484,157.081,35.717z"/>
		<path fill="#193F3F" d="M177.193,37.768c-0.336,0-0.62-0.115-0.852-0.348c-0.232-0.232-0.349-0.516-0.349-0.852v-15.6
			c0-0.336,0.116-0.62,0.349-0.853c0.231-0.231,0.516-0.348,0.852-0.348c0.32,0,0.6,0.116,0.84,0.348
			c0.24,0.232,0.36,0.517,0.36,0.853v15.6c0,0.336-0.12,0.619-0.36,0.852S177.514,37.768,177.193,37.768z"/>
		<path fill="#193F3F" d="M189.625,22.625c-0.561,0.304-1.017,0.728-1.368,1.271l8.664,8.665c0.176,0.176,0.292,0.379,0.349,0.611
			c0.056,0.232,0.035,0.469-0.061,0.709c-0.225,0.559-0.524,1.08-0.9,1.559c-0.376,0.48-0.819,0.896-1.332,1.248
			c-0.96,0.641-2.031,1-3.216,1.08h-0.12h-5.208c-0.319,0-0.6-0.115-0.84-0.348c-0.239-0.232-0.359-0.516-0.359-0.852
			s0.12-0.621,0.359-0.852c0.24-0.232,0.521-0.35,0.84-0.35h5.017c0.655,0,1.264-0.15,1.824-0.455
			c0.56-0.305,1.016-0.721,1.367-1.248L185.977,25c-0.111-0.097-0.2-0.217-0.264-0.36c-0.016-0.016-0.023-0.04-0.023-0.072
			c-0.112-0.24-0.129-0.479-0.049-0.72v-0.072c0.017-0.016,0.024-0.031,0.024-0.048v-0.024l0.024-0.023v-0.024
			c0.464-1.151,1.207-2.079,2.231-2.784c0.496-0.352,1.023-0.615,1.584-0.792c0.56-0.176,1.144-0.279,1.752-0.312h0.097h5.111
			c0.336,0,0.62,0.116,0.853,0.348c0.231,0.232,0.348,0.517,0.348,0.853s-0.116,0.62-0.348,0.852
			c-0.232,0.232-0.517,0.349-0.853,0.349h-5.016C190.793,22.168,190.185,22.321,189.625,22.625z"/>
		<path fill="#193F3F" d="M227.138,19.768c0.336,0,0.62,0.116,0.852,0.348c0.232,0.232,0.349,0.517,0.349,0.853v5.016v2.784v2.785
			c0,0.832-0.156,1.623-0.469,2.375c-0.312,0.752-0.764,1.424-1.355,2.016c-0.592,0.594-1.265,1.045-2.017,1.357
			c-0.752,0.311-1.544,0.467-2.376,0.467s-1.624-0.156-2.376-0.467c-0.752-0.313-1.424-0.764-2.016-1.357
			c-0.592-0.592-1.044-1.264-1.355-2.016c-0.313-0.752-0.469-1.543-0.469-2.375v-2.785v-2.784v-5.016c0-0.336,0.12-0.62,0.36-0.853
			c0.24-0.231,0.52-0.348,0.84-0.348c0.336,0,0.62,0.116,0.853,0.348c0.231,0.232,0.348,0.517,0.348,0.853v5.016v2.784v2.785
			c0,0.527,0.1,1.023,0.3,1.488c0.2,0.463,0.476,0.867,0.828,1.211c0.352,0.344,0.756,0.617,1.212,0.816s0.948,0.299,1.476,0.299
			c0.528,0,1.024-0.1,1.488-0.299s0.868-0.473,1.212-0.816s0.616-0.748,0.816-1.211c0.2-0.465,0.3-0.961,0.3-1.488v-2.785v-2.784
			v-5.016c0-0.336,0.116-0.62,0.348-0.853C226.518,19.884,226.802,19.768,227.138,19.768z"/>
		<path fill="#193F3F" d="M248.714,19.792c0.336,0,0.619,0.116,0.852,0.348c0.231,0.232,0.348,0.516,0.348,0.852v3.313v3.336v2.304
			v3.335v3.289c0,0.336-0.116,0.619-0.348,0.852c-0.232,0.232-0.516,0.348-0.852,0.348c-0.32,0-0.601-0.115-0.841-0.348
			c-0.239-0.232-0.359-0.516-0.359-0.852V33.76l-3.265-3.288l-1.703-1.68l-4.896-4.896v12.672c0,0.336-0.116,0.619-0.348,0.852
			c-0.232,0.232-0.517,0.348-0.853,0.348s-0.62-0.115-0.852-0.348c-0.232-0.232-0.349-0.516-0.349-0.852V20.992
			c0-0.239,0.068-0.459,0.204-0.659s0.316-0.349,0.54-0.444c0.496-0.208,0.928-0.12,1.296,0.264l0.097,0.097l10.128,10.128v-3.24
			V23.8v-2.809c0-0.336,0.12-0.619,0.359-0.852C248.113,19.909,248.394,19.792,248.714,19.792z"/>
		<path fill="#193F3F" d="M262.656,37.793h-4.367c-0.337,0-0.621-0.117-0.853-0.35c-0.232-0.23-0.348-0.516-0.348-0.852V21.016
			c0-0.336,0.115-0.62,0.348-0.852c0.231-0.232,0.516-0.349,0.853-0.349h4.367c0.992,0,1.933,0.18,2.82,0.54
			s1.676,0.893,2.364,1.596c0.704,0.705,1.239,1.497,1.607,2.376c0.368,0.881,0.553,1.816,0.553,2.809v3.336
			c0,0.993-0.185,1.928-0.553,2.807c-0.368,0.881-0.903,1.674-1.607,2.377c-0.688,0.703-1.477,1.236-2.364,1.596
			S263.648,37.793,262.656,37.793z M259.488,35.393h3.168c0.688,0,1.332-0.129,1.933-0.385c0.6-0.256,1.124-0.607,1.571-1.057
			c0.448-0.447,0.801-0.971,1.057-1.57c0.256-0.602,0.384-1.236,0.384-1.909v-3.336c0-0.672-0.128-1.309-0.384-1.908
			s-0.608-1.124-1.057-1.572c-0.447-0.447-0.972-0.8-1.571-1.056c-0.601-0.256-1.244-0.384-1.933-0.384h-3.168V35.393z"/>
		<path fill="#193F3F" d="M288.937,35.717c0.24,0.23,0.36,0.516,0.36,0.852s-0.12,0.619-0.36,0.852
			c-0.239,0.232-0.52,0.348-0.84,0.348h-5.016c-0.832,0-1.624-0.156-2.376-0.467c-0.752-0.313-1.425-0.764-2.016-1.357
			c-0.593-0.592-1.045-1.264-1.356-2.016c-0.313-0.752-0.468-1.543-0.468-2.375v-5.569c0-0.832,0.155-1.624,0.468-2.376
			c0.312-0.752,0.764-1.424,1.356-2.016c0.591-0.592,1.264-1.044,2.016-1.356c0.752-0.312,1.544-0.468,2.376-0.468h5.016
			c0.32,0,0.601,0.116,0.84,0.348c0.24,0.232,0.36,0.517,0.36,0.853s-0.12,0.62-0.36,0.852c-0.239,0.232-0.52,0.349-0.84,0.349
			h-5.016c-0.528,0-1.024,0.1-1.488,0.3s-0.868,0.472-1.212,0.815c-0.344,0.345-0.616,0.748-0.815,1.212
			c-0.201,0.465-0.301,0.961-0.301,1.488v3.433l3.408-3.408c0.24-0.224,0.524-0.336,0.853-0.336c0.327,0,0.611,0.112,0.852,0.336
			c0.224,0.24,0.336,0.524,0.336,0.852c0,0.328-0.112,0.612-0.336,0.853l-4.944,4.944c0.225,0.783,0.672,1.432,1.345,1.943
			c0.672,0.514,1.439,0.768,2.304,0.768h5.016C288.417,35.367,288.697,35.484,288.937,35.717z"/>
		<path fill="#193F3F" d="M307.921,35.729c0.24,0.225,0.36,0.504,0.36,0.84s-0.12,0.615-0.36,0.84
			c-0.225,0.24-0.504,0.359-0.84,0.359c-0.32,0-0.601-0.119-0.84-0.359l-5.017-4.992l-2.976,2.977v1.176
			c0,0.336-0.116,0.619-0.348,0.852c-0.232,0.232-0.517,0.348-0.853,0.348c-0.32,0-0.6-0.115-0.84-0.348s-0.36-0.516-0.36-0.852
			v-15.6c0-0.336,0.12-0.62,0.36-0.853c0.24-0.231,0.52-0.348,0.84-0.348h6.145c0.703,0,1.363,0.132,1.979,0.396
			c0.616,0.264,1.156,0.628,1.62,1.092s0.828,1.008,1.092,1.632c0.265,0.624,0.396,1.288,0.396,1.992c0,0.352-0.12,0.632-0.36,0.84
			l-4.992,4.992L307.921,35.729z M298.249,32.008l2.136-2.136l5.448-5.472c-0.112-0.64-0.412-1.172-0.9-1.596
			s-1.067-0.636-1.739-0.636h-4.944V32.008z"/>
		<path fill="#193F3F" d="M338.28,37.768h-4.392c-0.977,0-1.908-0.18-2.796-0.539c-0.888-0.361-1.685-0.893-2.388-1.596
			c-0.688-0.705-1.217-1.496-1.584-2.377c-0.369-0.879-0.553-1.816-0.553-2.808v-3.336c0-0.991,0.184-1.928,0.553-2.808
			c0.367-0.88,0.896-1.672,1.584-2.376c0.703-0.704,1.5-1.236,2.388-1.596c0.888-0.36,1.819-0.54,2.796-0.54h4.392
			c0.32,0,0.601,0.116,0.841,0.348c0.239,0.232,0.359,0.516,0.359,0.852c0,0.32-0.12,0.601-0.359,0.841
			c-0.24,0.239-0.521,0.359-0.841,0.359h-4.392c-0.672,0-1.308,0.129-1.908,0.384c-0.6,0.257-1.124,0.608-1.572,1.057
			c-0.447,0.448-0.8,0.972-1.056,1.571c-0.256,0.601-0.384,1.236-0.384,1.908v3.336c0,0.671,0.128,1.308,0.384,1.908
			c0.256,0.602,0.608,1.125,1.056,1.572c0.448,0.449,0.973,0.801,1.572,1.057c0.601,0.256,1.236,0.383,1.908,0.383h4.392
			c0.32,0,0.601,0.121,0.841,0.361c0.239,0.24,0.359,0.52,0.359,0.84c0,0.336-0.12,0.619-0.359,0.852
			C338.881,37.652,338.601,37.768,338.28,37.768z"/>
		<path fill="#193F3F" d="M353.018,37.768c-0.992,0-1.934-0.184-2.821-0.551c-0.888-0.369-1.676-0.896-2.364-1.584
			c-0.704-0.705-1.239-1.5-1.607-2.389s-0.552-1.82-0.552-2.796v-3.359c0-0.976,0.184-1.908,0.552-2.796
			c0.368-0.889,0.903-1.685,1.607-2.389c0.688-0.688,1.477-1.216,2.364-1.584c0.888-0.367,1.829-0.552,2.821-0.552
			c0.975,0,1.908,0.185,2.795,0.552c0.889,0.368,1.684,0.896,2.389,1.584c0.688,0.704,1.215,1.5,1.584,2.389
			c0.367,0.888,0.553,1.82,0.553,2.796v3.359c0,0.976-0.186,1.908-0.553,2.796c-0.369,0.889-0.896,1.684-1.584,2.389
			c-0.705,0.688-1.5,1.215-2.389,1.584C354.926,37.584,353.992,37.768,353.018,37.768z M353.018,22.168
			c-0.689,0-1.332,0.128-1.934,0.384c-0.6,0.256-1.124,0.608-1.571,1.056c-0.448,0.448-0.801,0.972-1.057,1.572
			c-0.256,0.6-0.384,1.236-0.384,1.908v3.359c0,0.671,0.128,1.308,0.384,1.908c0.256,0.602,0.608,1.125,1.057,1.572
			c0.447,0.449,0.972,0.801,1.571,1.057c0.602,0.256,1.244,0.383,1.934,0.383c0.672,0,1.307-0.127,1.908-0.383
			c0.6-0.256,1.123-0.607,1.57-1.057c0.449-0.447,0.801-0.971,1.057-1.572c0.256-0.6,0.385-1.236,0.385-1.908v-3.359
			c0-0.672-0.129-1.309-0.385-1.908c-0.256-0.601-0.607-1.124-1.057-1.572c-0.447-0.447-0.971-0.8-1.57-1.056
			C354.324,22.296,353.689,22.168,353.018,22.168z"/>
		<path fill="#193F3F" d="M380.785,19.792c0.336,0,0.619,0.116,0.852,0.348c0.23,0.232,0.348,0.516,0.348,0.852v3.313v3.336v2.304
			v3.335v3.289c0,0.336-0.117,0.619-0.348,0.852c-0.232,0.232-0.516,0.348-0.852,0.348c-0.32,0-0.602-0.115-0.842-0.348
			c-0.238-0.232-0.359-0.516-0.359-0.852V33.76l-3.264-3.288l-1.703-1.68l-4.896-4.896v12.672c0,0.336-0.117,0.619-0.348,0.852
			c-0.232,0.232-0.518,0.348-0.854,0.348s-0.619-0.115-0.852-0.348s-0.348-0.516-0.348-0.852V20.992
			c0-0.239,0.068-0.459,0.203-0.659c0.137-0.2,0.316-0.349,0.541-0.444c0.496-0.208,0.928-0.12,1.295,0.264l0.098,0.097
			l10.127,10.128v-3.24V23.8v-2.809c0-0.336,0.121-0.619,0.359-0.852C380.184,19.909,380.465,19.792,380.785,19.792z"/>
		<path fill="#193F3F" d="M393.049,22.625c-0.561,0.304-1.018,0.728-1.369,1.271l8.664,8.665c0.176,0.176,0.293,0.379,0.35,0.611
			c0.055,0.232,0.035,0.469-0.061,0.709c-0.225,0.559-0.525,1.08-0.9,1.559c-0.377,0.48-0.82,0.896-1.332,1.248
			c-0.961,0.641-2.031,1-3.217,1.08h-0.119h-5.209c-0.318,0-0.6-0.115-0.84-0.348c-0.238-0.232-0.359-0.516-0.359-0.852
			s0.121-0.621,0.359-0.852c0.24-0.232,0.521-0.35,0.84-0.35h5.018c0.654,0,1.264-0.15,1.824-0.455
			c0.559-0.305,1.016-0.721,1.367-1.248L389.4,25c-0.111-0.097-0.201-0.217-0.264-0.36c-0.016-0.016-0.023-0.04-0.023-0.072
			c-0.113-0.24-0.129-0.479-0.049-0.72v-0.072c0.016-0.016,0.023-0.031,0.023-0.048v-0.024l0.025-0.023v-0.024
			c0.463-1.151,1.207-2.079,2.23-2.784c0.496-0.352,1.023-0.615,1.584-0.792c0.561-0.176,1.145-0.279,1.752-0.312h0.098h5.111
			c0.336,0,0.619,0.116,0.852,0.348c0.232,0.232,0.348,0.517,0.348,0.853s-0.115,0.62-0.348,0.852
			c-0.232,0.232-0.516,0.349-0.852,0.349h-5.016C394.217,22.168,393.607,22.321,393.049,22.625z"/>
		<path fill="#193F3F" d="M418.955,20.116c0.232,0.232,0.35,0.517,0.35,0.853s-0.117,0.62-0.35,0.852
			c-0.23,0.232-0.516,0.349-0.852,0.349h-3.84v14.4c0,0.336-0.115,0.619-0.348,0.852s-0.516,0.348-0.852,0.348
			s-0.621-0.115-0.852-0.348c-0.232-0.232-0.35-0.516-0.35-0.852v-14.4h-3.791c-0.32,0-0.6-0.116-0.84-0.349
			c-0.24-0.231-0.361-0.516-0.361-0.852s0.121-0.62,0.361-0.853c0.24-0.231,0.52-0.348,0.84-0.348h10.031
			C418.439,19.768,418.725,19.884,418.955,20.116z"/>
		<path fill="#193F3F" d="M437.496,35.729c0.24,0.225,0.361,0.504,0.361,0.84s-0.121,0.615-0.361,0.84
			c-0.225,0.24-0.504,0.359-0.84,0.359c-0.32,0-0.6-0.119-0.84-0.359l-5.016-4.992l-2.977,2.977v1.176
			c0,0.336-0.115,0.619-0.348,0.852s-0.516,0.348-0.852,0.348c-0.32,0-0.6-0.115-0.84-0.348s-0.361-0.516-0.361-0.852v-15.6
			c0-0.336,0.121-0.62,0.361-0.853c0.24-0.231,0.52-0.348,0.84-0.348h6.145c0.703,0,1.363,0.132,1.979,0.396
			c0.617,0.264,1.156,0.628,1.621,1.092c0.463,0.464,0.828,1.008,1.092,1.632s0.396,1.288,0.396,1.992
			c0,0.352-0.121,0.632-0.361,0.84l-4.992,4.992L437.496,35.729z M427.824,32.008l2.137-2.136l5.447-5.472
			c-0.111-0.64-0.412-1.172-0.9-1.596s-1.066-0.636-1.738-0.636h-4.945V32.008z"/>
		<path fill="#193F3F" d="M455.496,19.768c0.336,0,0.621,0.116,0.852,0.348c0.232,0.232,0.35,0.517,0.35,0.853v5.016v2.784v2.785
			c0,0.832-0.156,1.623-0.469,2.375s-0.764,1.424-1.355,2.016c-0.592,0.594-1.266,1.045-2.018,1.357
			c-0.752,0.311-1.543,0.467-2.375,0.467s-1.625-0.156-2.377-0.467c-0.752-0.313-1.424-0.764-2.016-1.357
			c-0.592-0.592-1.043-1.264-1.355-2.016s-0.469-1.543-0.469-2.375v-2.785v-2.784v-5.016c0-0.336,0.121-0.62,0.361-0.853
			c0.24-0.231,0.52-0.348,0.84-0.348c0.336,0,0.619,0.116,0.852,0.348c0.232,0.232,0.348,0.517,0.348,0.853v5.016v2.784v2.785
			c0,0.527,0.1,1.023,0.301,1.488c0.199,0.463,0.475,0.867,0.828,1.211c0.352,0.344,0.756,0.617,1.211,0.816
			c0.457,0.199,0.949,0.299,1.477,0.299s1.023-0.1,1.488-0.299c0.463-0.199,0.867-0.473,1.211-0.816s0.617-0.748,0.816-1.211
			c0.201-0.465,0.301-0.961,0.301-1.488v-2.785v-2.784v-5.016c0-0.336,0.115-0.62,0.348-0.853
			C454.877,19.884,455.16,19.768,455.496,19.768z"/>
		<path fill="#193F3F" d="M475.271,37.768h-4.393c-0.977,0-1.908-0.18-2.795-0.539c-0.889-0.361-1.686-0.893-2.389-1.596
			c-0.688-0.705-1.217-1.496-1.584-2.377c-0.369-0.879-0.553-1.816-0.553-2.808v-3.336c0-0.991,0.184-1.928,0.553-2.808
			c0.367-0.88,0.896-1.672,1.584-2.376c0.703-0.704,1.5-1.236,2.389-1.596c0.887-0.36,1.818-0.54,2.795-0.54h4.393
			c0.32,0,0.6,0.116,0.84,0.348c0.24,0.232,0.359,0.516,0.359,0.852c0,0.32-0.119,0.601-0.359,0.841
			c-0.24,0.239-0.52,0.359-0.84,0.359h-4.393c-0.672,0-1.307,0.129-1.908,0.384c-0.6,0.257-1.123,0.608-1.572,1.057
			c-0.447,0.448-0.799,0.972-1.055,1.571c-0.256,0.601-0.385,1.236-0.385,1.908v3.336c0,0.671,0.129,1.308,0.385,1.908
			c0.256,0.602,0.607,1.125,1.055,1.572c0.449,0.449,0.973,0.801,1.572,1.057c0.602,0.256,1.236,0.383,1.908,0.383h4.393
			c0.32,0,0.6,0.121,0.84,0.361s0.359,0.52,0.359,0.84c0,0.336-0.119,0.619-0.359,0.852S475.592,37.768,475.271,37.768z"/>
		<path fill="#193F3F" d="M494.076,20.116c0.232,0.232,0.348,0.517,0.348,0.853s-0.115,0.62-0.348,0.852
			c-0.232,0.232-0.516,0.349-0.852,0.349h-3.84v14.4c0,0.336-0.117,0.619-0.348,0.852c-0.232,0.232-0.518,0.348-0.854,0.348
			s-0.619-0.115-0.852-0.348s-0.348-0.516-0.348-0.852v-14.4h-3.793c-0.32,0-0.6-0.116-0.84-0.349
			c-0.24-0.231-0.359-0.516-0.359-0.852s0.119-0.62,0.359-0.853c0.24-0.231,0.52-0.348,0.84-0.348h10.033
			C493.561,19.768,493.844,19.884,494.076,20.116z"/>
		<path fill="#193F3F" d="M501.863,37.768c-0.336,0-0.619-0.115-0.852-0.348s-0.348-0.516-0.348-0.852v-15.6
			c0-0.336,0.115-0.62,0.348-0.853c0.232-0.231,0.516-0.348,0.852-0.348c0.32,0,0.6,0.116,0.84,0.348
			c0.24,0.232,0.361,0.517,0.361,0.853v15.6c0,0.336-0.121,0.619-0.361,0.852S502.184,37.768,501.863,37.768z"/>
		<path fill="#193F3F" d="M517.703,37.768c-0.992,0-1.932-0.184-2.82-0.551c-0.887-0.369-1.676-0.896-2.363-1.584
			c-0.705-0.705-1.24-1.5-1.607-2.389c-0.369-0.889-0.553-1.82-0.553-2.796v-3.359c0-0.976,0.184-1.908,0.553-2.796
			c0.367-0.889,0.902-1.685,1.607-2.389c0.688-0.688,1.477-1.216,2.363-1.584c0.889-0.367,1.828-0.552,2.82-0.552
			c0.977,0,1.908,0.185,2.797,0.552c0.887,0.368,1.684,0.896,2.387,1.584c0.689,0.704,1.217,1.5,1.584,2.389
			c0.369,0.888,0.553,1.82,0.553,2.796v3.359c0,0.976-0.184,1.908-0.553,2.796c-0.367,0.889-0.895,1.684-1.584,2.389
			c-0.703,0.688-1.5,1.215-2.387,1.584C519.611,37.584,518.68,37.768,517.703,37.768z M517.703,22.168
			c-0.688,0-1.332,0.128-1.932,0.384s-1.125,0.608-1.572,1.056c-0.447,0.448-0.801,0.972-1.057,1.572
			c-0.256,0.6-0.383,1.236-0.383,1.908v3.359c0,0.671,0.127,1.308,0.383,1.908c0.256,0.602,0.609,1.125,1.057,1.572
			c0.447,0.449,0.973,0.801,1.572,1.057s1.244,0.383,1.932,0.383c0.672,0,1.309-0.127,1.908-0.383s1.123-0.607,1.572-1.057
			c0.447-0.447,0.799-0.971,1.057-1.572c0.256-0.6,0.383-1.236,0.383-1.908v-3.359c0-0.672-0.127-1.309-0.383-1.908
			c-0.258-0.601-0.609-1.124-1.057-1.572c-0.449-0.447-0.973-0.8-1.572-1.056S518.375,22.168,517.703,22.168z"/>
		<path fill="#193F3F" d="M545.471,19.792c0.336,0,0.619,0.116,0.852,0.348c0.232,0.232,0.348,0.516,0.348,0.852v3.313v3.336v2.304
			v3.335v3.289c0,0.336-0.115,0.619-0.348,0.852s-0.516,0.348-0.852,0.348c-0.32,0-0.6-0.115-0.84-0.348s-0.359-0.516-0.359-0.852
			V33.76l-3.266-3.288l-1.703-1.68l-4.896-4.896v12.672c0,0.336-0.115,0.619-0.348,0.852s-0.516,0.348-0.852,0.348
			s-0.621-0.115-0.852-0.348c-0.232-0.232-0.35-0.516-0.35-0.852V20.992c0-0.239,0.068-0.459,0.205-0.659
			c0.135-0.2,0.316-0.349,0.539-0.444c0.496-0.208,0.928-0.12,1.297,0.264l0.096,0.097l10.129,10.128v-3.24V23.8v-2.809
			c0-0.336,0.119-0.619,0.359-0.852C544.871,19.909,545.15,19.792,545.471,19.792z"/>
		<path fill="#193F3F" d="M554.975,34.721c-0.336,0-0.619-0.121-0.852-0.361s-0.348-0.52-0.348-0.84V20.944
			c0-0.336,0.115-0.62,0.348-0.852c0.232-0.232,0.516-0.349,0.852-0.349s0.621,0.116,0.852,0.349c0.232,0.231,0.35,0.516,0.35,0.852
			V33.52c0,0.32-0.117,0.6-0.35,0.84C555.596,34.6,555.311,34.721,554.975,34.721z M554.975,37.744c-0.352,0-0.633-0.119-0.84-0.359
			c-0.24-0.209-0.359-0.488-0.359-0.84c0-0.336,0.119-0.625,0.359-0.865c0.225-0.223,0.504-0.336,0.84-0.336s0.615,0.113,0.84,0.336
			c0.24,0.24,0.361,0.529,0.361,0.865c0,0.352-0.121,0.631-0.361,0.84C555.59,37.625,555.311,37.744,554.975,37.744z"/>
	</g>
	<g>
		<path fill="#193F3F" d="M575,60H0V0h575V60z M5,55h565V5H5V55z"/>
	</g>
</g>
</svg>
