<?xml version="1.0" encoding="utf-8"?>
<!-- Generator: Adobe Illustrator 16.0.0, SVG Export Plug-In . SVG Version: 6.00 Build 0)  -->
<!DOCTYPE svg PUBLIC "-//W3C//DTD SVG 1.1//EN" "http://www.w3.org/Graphics/SVG/1.1/DTD/svg11.dtd">
<svg version="1.1" id="Layer_1" xmlns="http://www.w3.org/2000/svg" xmlns:xlink="http://www.w3.org/1999/xlink" x="0px" y="0px"
	 width="1400px" height="1000px" viewBox="0 0 1400 1000" enable-background="new 0 0 1400 1000" xml:space="preserve">
<g id="minitruck">
	<g display="none">
		<g display="inline">
			<path fill="#C1C6C6" d="M1087.173,791.356c-0.017,0.608,14.474,1.219,32.353,1.357c17.88,0.143,32.392-0.237,32.406-0.845
				c0.017-0.614-14.472-1.221-32.353-1.364C1101.701,790.368,1087.189,790.745,1087.173,791.356z"/>
		</g>
	</g>
	<g>
		<g display="none">
			<rect x="1102" y="749.688" display="inline" fill="#686867" width="2.871" height="36.938"/>
			<rect x="1102.734" y="759.537" display="inline" fill="#686867" width="7.265" height="3.419"/>
			<rect x="1102.734" y="770.287" display="inline" fill="#686867" width="7.265" height="3.418"/>
			<path display="inline" fill="#686867" d="M1110,760v21.49c-0.65,1.028-1.03,2.51-1.04,3.51H1107v-25H1110z"/>
			<rect x="1085.75" y="784.396" display="inline" fill="#686867" width="19.121" height="2.229"/>
		</g>
		<g>
			<g>
				<path fill="#D8D8D8" d="M1113.194,785.03c0,1.513,1.229,2.743,2.743,2.743c1.513,0,2.741-1.23,2.741-2.743
					s-1.229-2.742-2.741-2.742C1114.424,782.288,1113.194,783.519,1113.194,785.03z"/>
			</g>
			<g>
				<path fill="#31342C" d="M1114.979,785.03c0-0.527,0.432-0.957,0.959-0.957c0.526,0,0.957,0.43,0.957,0.957
					s-0.431,0.958-0.957,0.958C1115.41,785.988,1114.979,785.559,1114.979,785.03z M1115.331,785.03
					c0,0.334,0.271,0.605,0.606,0.605c0.334,0,0.604-0.271,0.604-0.605s-0.271-0.605-0.604-0.605S1115.331,784.696,1115.331,785.03z
					"/>
			</g>
			<g>
				<path fill="#31342C" d="M1112.843,785.03c0-1.705,1.39-3.095,3.095-3.095c1.706,0,3.095,1.39,3.095,3.095
					c0,1.706-1.388,3.095-3.095,3.095C1114.232,788.125,1112.843,786.736,1112.843,785.03z M1113.194,785.03
					c0,1.513,1.229,2.743,2.743,2.743c1.513,0,2.741-1.23,2.741-2.743s-1.229-2.742-2.741-2.742
					C1114.424,782.288,1113.194,783.519,1113.194,785.03z"/>
			</g>
			<path fill="#31342C" d="M1115.938,781.097c2.173,0,3.936,1.762,3.936,3.935s-1.763,3.935-3.936,3.935s-3.935-1.762-3.935-3.935
				S1113.765,781.097,1115.938,781.097z M1109.424,785.03c0,3.598,2.916,6.514,6.514,6.514s6.514-2.916,6.514-6.514
				s-2.916-6.515-6.514-6.515C1112.34,778.517,1109.424,781.434,1109.424,785.03z"/>
			<path fill="#31342C" d="M1116.401,782.148c0,0-0.464-0.083-0.859-0.011c0,0,0.313,1.333,0.752,0.216L1116.401,782.148z"/>
			<path fill="#31342C" d="M1118.383,783.342c0,0-0.27-0.388-0.601-0.614c0,0-0.721,1.164,0.379,0.684L1118.383,783.342z"/>
			<path fill="#31342C" d="M1113.55,783.342c0,0,0.27-0.388,0.601-0.614c0,0,0.721,1.164-0.379,0.684L1113.55,783.342z"/>
			<path fill="#31342C" d="M1118.814,785.536c0,0,0.084-0.464,0.011-0.858c0,0-1.333,0.313-0.214,0.751L1118.814,785.536z"/>
			<path fill="#31342C" d="M1113.059,785.536c0,0-0.083-0.464-0.01-0.858c0,0,1.334,0.313,0.215,0.751L1113.059,785.536z"/>
			<path fill="#31342C" d="M1117.751,787.321c0,0,0.388-0.27,0.614-0.601c0,0-1.164-0.721-0.684,0.38L1117.751,787.321z"/>
			<path fill="#31342C" d="M1114.033,787.321c0,0-0.389-0.27-0.615-0.601c0,0,1.166-0.721,0.684,0.38L1114.033,787.321z"/>
			<path fill="#31342C" d="M1116.401,782.148c0,0-0.464-0.083-0.859-0.011c0,0,0.313,1.333,0.752,0.216L1116.401,782.148z"/>
			<path fill="#31342C" d="M1116.401,787.798c0,0-0.464,0.083-0.859,0.01c0,0,0.313-1.333,0.752-0.215L1116.401,787.798z"/>
			<g>
				<path fill="#A3A3A3" d="M1115.331,785.03c0,0.334,0.271,0.605,0.606,0.605c0.334,0,0.604-0.271,0.604-0.605
					s-0.271-0.605-0.604-0.605S1115.331,784.696,1115.331,785.03z"/>
			</g>
			<g>
				<path fill="#C1BFBC" d="M1115.331,785.03c0,0.334,0.271,0.605,0.606,0.605c0.334,0,0.604-0.271,0.604-0.605
					s-0.271-0.605-0.604-0.605S1115.331,784.696,1115.331,785.03z"/>
			</g>
			<g>
				
					<radialGradient id="SVGID_1_" cx="1385.8975" cy="-16.792" r="9.3022" gradientTransform="matrix(1 0 0 -1 -270 767)" gradientUnits="userSpaceOnUse">
					<stop  offset="0" style="stop-color:#686868"/>
					<stop  offset="1" style="stop-color:#C1BAB0"/>
				</radialGradient>
				<path fill="url(#SVGID_1_)" d="M1111.964,785.03c0-2.191,1.782-3.975,3.974-3.975c2.19,0,3.974,1.782,3.974,3.975
					c0,2.191-1.782,3.974-3.974,3.974S1111.964,787.222,1111.964,785.03z M1112.835,785.03c0,1.711,1.392,3.103,3.103,3.103
					s3.103-1.392,3.103-3.103s-1.392-3.103-3.103-3.103C1114.227,781.929,1112.835,783.319,1112.835,785.03z"/>
			</g>
		</g>
		<g>
			<g>
				<path fill="#D8D8D8" d="M1142.012,785.03c0,1.513,1.23,2.743,2.743,2.743c1.512,0,2.743-1.23,2.743-2.743
					s-1.23-2.742-2.743-2.742S1142.012,783.519,1142.012,785.03z"/>
			</g>
			<g>
				<path fill="#31342C" d="M1143.797,785.03c0-0.527,0.432-0.957,0.958-0.957c0.527,0,0.957,0.43,0.957,0.957
					s-0.43,0.958-0.957,0.958C1144.229,785.988,1143.797,785.559,1143.797,785.03z M1144.148,785.03
					c0,0.334,0.271,0.605,0.605,0.605c0.333,0,0.605-0.271,0.605-0.605s-0.272-0.605-0.605-0.605
					C1144.42,784.425,1144.148,784.696,1144.148,785.03z"/>
			</g>
			<g>
				<path fill="#31342C" d="M1141.66,785.03c0-1.705,1.389-3.095,3.095-3.095s3.094,1.39,3.094,3.095
					c0,1.706-1.388,3.095-3.094,3.095S1141.66,786.736,1141.66,785.03z M1142.012,785.03c0,1.513,1.23,2.743,2.743,2.743
					c1.512,0,2.743-1.23,2.743-2.743s-1.23-2.742-2.743-2.742S1142.012,783.519,1142.012,785.03z"/>
			</g>
			<path fill="#31342C" d="M1144.755,781.097c2.173,0,3.936,1.762,3.936,3.935s-1.763,3.935-3.936,3.935s-3.935-1.762-3.935-3.935
				S1142.582,781.097,1144.755,781.097z M1138.241,785.03c0,3.598,2.916,6.514,6.514,6.514c3.597,0,6.513-2.916,6.513-6.514
				s-2.916-6.515-6.513-6.515C1141.157,778.517,1138.241,781.434,1138.241,785.03z"/>
			<path fill="#31342C" d="M1145.219,782.148c0,0-0.464-0.083-0.858-0.011c0,0,0.313,1.333,0.752,0.216L1145.219,782.148z"/>
			<path fill="#31342C" d="M1147.199,783.342c0,0-0.27-0.388-0.601-0.614c0,0-0.722,1.164,0.38,0.684L1147.199,783.342z"/>
			<path fill="#31342C" d="M1142.366,783.342c0,0,0.27-0.388,0.601-0.614c0,0,0.721,1.164-0.379,0.684L1142.366,783.342z"/>
			<path fill="#31342C" d="M1147.633,785.536c0,0,0.084-0.464,0.01-0.858c0,0-1.332,0.313-0.215,0.751L1147.633,785.536z"/>
			<path fill="#31342C" d="M1141.877,785.536c0,0-0.084-0.464-0.01-0.858c0,0,1.333,0.313,0.214,0.751L1141.877,785.536z"/>
			<path fill="#31342C" d="M1146.568,787.321c0,0,0.388-0.27,0.614-0.601c0,0-1.166-0.721-0.684,0.38L1146.568,787.321z"/>
			<path fill="#31342C" d="M1142.851,787.321c0,0-0.388-0.27-0.613-0.601c0,0,1.163-0.721,0.683,0.38L1142.851,787.321z"/>
			<path fill="#31342C" d="M1145.219,782.148c0,0-0.464-0.083-0.858-0.011c0,0,0.313,1.333,0.752,0.216L1145.219,782.148z"/>
			<path fill="#31342C" d="M1145.219,787.798c0,0-0.464,0.083-0.858,0.01c0,0,0.313-1.333,0.752-0.215L1145.219,787.798z"/>
			<g>
				<path fill="#A3A3A3" d="M1144.148,785.03c0,0.334,0.271,0.605,0.605,0.605c0.333,0,0.605-0.271,0.605-0.605
					s-0.272-0.605-0.605-0.605C1144.42,784.425,1144.148,784.696,1144.148,785.03z"/>
			</g>
			<g>
				<path fill="#C1BFBC" d="M1144.148,785.03c0,0.334,0.271,0.605,0.605,0.605c0.333,0,0.605-0.271,0.605-0.605
					s-0.272-0.605-0.605-0.605C1144.42,784.425,1144.148,784.696,1144.148,785.03z"/>
			</g>
			<g>
				
					<radialGradient id="SVGID_2_" cx="1414.7139" cy="-16.792" r="9.3039" gradientTransform="matrix(1 0 0 -1 -270 767)" gradientUnits="userSpaceOnUse">
					<stop  offset="0" style="stop-color:#686868"/>
					<stop  offset="1" style="stop-color:#C1BAB0"/>
				</radialGradient>
				<path fill="url(#SVGID_2_)" d="M1140.78,785.03c0-2.191,1.782-3.975,3.975-3.975c2.19,0,3.974,1.782,3.974,3.975
					c0,2.191-1.782,3.974-3.974,3.974C1142.563,789.004,1140.78,787.222,1140.78,785.03z M1141.652,785.03
					c0,1.711,1.392,3.103,3.103,3.103c1.71,0,3.104-1.392,3.104-3.103s-1.394-3.103-3.104-3.103
					C1143.044,781.929,1141.652,783.319,1141.652,785.03z"/>
			</g>
		</g>
		<path display="none" fill="#2E7275" d="M1134.145,768.438h18.67c0,0,1.441,0.981,1.281,2.131l0.012,11.541l-2.256,2.922
			c0,0,0.699-7.265-7.703-7.525c0,0-5.518,0.168-7.521,7.525h-13.62c0,0,0.057-6.904-7.223-7.064v-14.729
			c0,0,0.091-8.587,7.383-11.952h9.054c0,0,1.684,0.479,1.763,2.163v14.503L1134.145,768.438z"/>
		<g display="none">
			<path display="inline" fill="#848484" d="M1131.901,753.688v13.828h-13.926v-4.921c0,0,0.624-6.263,5.513-8.907H1131.901z"/>
			<path display="inline" fill="#686867" d="M1132.382,767.997h-14.886l0.002-5.449c0.025-0.266,0.707-6.549,5.762-9.283
				l0.106-0.058h9.016V767.997L1132.382,767.997z M1118.457,767.035h12.963v-12.866h-7.809c-4.378,2.45-5.108,8.061-5.154,8.452
				V767.035z"/>
		</g>
		<g display="none">
			<path display="inline" fill="#827F78" d="M1154.201,770.08c0,0,1.453,3.576,0,5.314
				C1154.201,775.395,1151.798,774.521,1154.201,770.08z"/>
			<path display="inline" fill="#C9C9C9" d="M1154.107,771.27c0,0,0.803,1.977,0,2.938
				C1154.107,774.206,1152.778,773.724,1154.107,771.27z"/>
		</g>
		<path display="none" fill="#909190" d="M1129.303,769.765l-0.441,1.624h-5.612c0,0-0.665-0.737,0-1.624H1129.303z"/>
		<g display="none">
			<path display="inline" fill="#D1CAC3" d="M1152.349,770.41c0,0.367-0.298,0.665-0.665,0.665h-1.328
				c-0.367,0-0.666-0.298-0.666-0.665l0,0c0-0.367,0.299-0.665,0.666-0.665h1.328
				C1152.051,769.745,1152.349,770.043,1152.349,770.41L1152.349,770.41z"/>
			<path display="inline" d="M1151.684,771.234h-1.328c-0.455,0-0.825-0.369-0.825-0.824s0.37-0.825,0.825-0.825h1.328
				c0.455,0,0.825,0.37,0.825,0.825S1152.139,771.234,1151.684,771.234z M1150.354,769.905c-0.277,0-0.505,0.227-0.505,0.505
				s0.228,0.504,0.505,0.504h1.329c0.278,0,0.505-0.226,0.505-0.504s-0.227-0.505-0.505-0.505H1150.354z"/>
		</g>
		<g display="none">
			
				<circle display="inline" fill="#D2D1D3" stroke="#212121" stroke-width="0.5" stroke-miterlimit="10" cx="1130.217" cy="770.607" r="0.694"/>
			<g display="inline">
				<rect x="1130.17" y="770.313" fill="#1C1B1C" width="0.095" height="0.59"/>
			</g>
		</g>
		<g display="none">
			<path display="inline" fill="#265E5E" d="M1153.16,785h-1.61c0-4-3.03-6.746-6.78-6.746s-6.77,3.106-6.77,6.856V786h-15v-0.89
				c0-3.75-3.275-6.802-7.025-6.802c-2.42,0-4.662,1.271-5.861,3.182c-0.65,1.028-1.086,2.186-1.097,3.475
				c-0.01,0.029-0.065,0.035-0.065,0.035H1107v0.02c0-2.38,1.215-4.52,2.825-6.039c1.51-1.421,3.618-2.436,5.837-2.436
				c4.361,0,8.048,3.455,8.448,7.455h12.278c0.4-4,4-7.51,8.36-7.51C1149.39,776.49,1153.16,780,1153.16,785z"/>
		</g>
	</g>
</g>
</svg>
