<?xml version="1.0" encoding="utf-8"?>
<!-- Generator: Adobe Illustrator 16.0.0, SVG Export Plug-In . SVG Version: 6.00 Build 0)  -->
<!DOCTYPE svg PUBLIC "-//W3C//DTD SVG 1.1//EN" "http://www.w3.org/Graphics/SVG/1.1/DTD/svg11.dtd">
<svg version="1.1" xmlns="http://www.w3.org/2000/svg" xmlns:xlink="http://www.w3.org/1999/xlink" x="0px" y="0px" width="70px"
	 height="50px" viewBox="0 0 70 50" enable-background="new 0 0 70 50" xml:space="preserve">
<g id="body" display="none">
	<g id="minitruck" display="inline">
		<g>
			<g>
				<path fill="#C1C6C6" d="M2.173,45.356c-0.017,0.609,14.473,1.219,32.352,1.358c17.88,0.142,32.392-0.237,32.407-0.845
					c0.016-0.614-14.472-1.221-32.353-1.364C16.701,44.368,2.19,44.745,2.173,45.356z"/>
			</g>
		</g>
		<g>
			<g>
				<rect x="17" y="3.688" fill="#686867" width="2.871" height="36.938"/>
				<rect x="17.734" y="13.537" fill="#686867" width="7.265" height="3.419"/>
				<rect x="17.734" y="24.287" fill="#686867" width="7.265" height="3.418"/>
				<path fill="#686867" d="M25,14v21.49C24.35,36.52,23.97,38,23.96,39H22V14H25z"/>
				<rect x="0.75" y="38.397" fill="#686867" width="19.121" height="2.229"/>
			</g>
			<path fill="#2E7275" d="M49.145,22.438h18.669c0,0,1.442,0.981,1.282,2.13l0.012,11.541l-2.256,2.922
				c0,0,0.699-7.264-7.703-7.525c0,0-5.518,0.168-7.521,7.525h-13.62c0,0,0.057-6.904-7.223-7.064V17.236
				c0,0,0.091-8.587,7.383-11.952h9.054c0,0,1.683,0.48,1.763,2.163V21.95L49.145,22.438z"/>
			<g>
				<path fill="#848484" d="M46.901,7.688v13.828H32.977v-4.921c0,0,0.624-6.263,5.512-8.907H46.901z"/>
				<path fill="#686867" d="M47.382,21.997H32.496l0.002-5.449c0.026-0.266,0.707-6.549,5.762-9.283l0.106-0.058h9.016V21.997z
					 M33.457,21.035H46.42V8.169h-7.809c-4.378,2.45-5.108,8.061-5.154,8.452V21.035z"/>
			</g>
			<g>
				<path fill="#827F78" d="M69.201,24.08c0,0,1.453,3.576,0,5.314C69.201,29.395,66.798,28.522,69.201,24.08z"/>
				<path fill="#C9C9C9" d="M69.107,25.27c0,0,0.803,1.976,0,2.937C69.107,28.206,67.778,27.724,69.107,25.27z"/>
			</g>
			<path fill="#909190" d="M44.303,23.765l-0.442,1.624h-5.612c0,0-0.665-0.738,0-1.624H44.303z"/>
			<g>
				<path fill="#D1CAC3" d="M67.349,24.41c0,0.367-0.298,0.665-0.665,0.665h-1.329c-0.367,0-0.665-0.298-0.665-0.665l0,0
					c0-0.367,0.298-0.665,0.665-0.665h1.329C67.051,23.745,67.349,24.043,67.349,24.41L67.349,24.41z"/>
				<path d="M66.684,25.234h-1.329c-0.455,0-0.825-0.369-0.825-0.824s0.37-0.825,0.825-0.825h1.329c0.455,0,0.825,0.37,0.825,0.825
					S67.139,25.234,66.684,25.234z M65.354,23.905c-0.278,0-0.505,0.227-0.505,0.505s0.227,0.504,0.505,0.504h1.329
					c0.278,0,0.505-0.226,0.505-0.504s-0.227-0.505-0.505-0.505H65.354z"/>
			</g>
			<g>
				<circle fill="#D2D1D3" stroke="#212121" stroke-width="0.5" stroke-miterlimit="10" cx="45.217" cy="24.607" r="0.694"/>
				<g>
					<rect x="45.17" y="24.313" fill="#1C1B1C" width="0.095" height="0.589"/>
				</g>
			</g>
			<g>
				<path fill="#265E5E" d="M68.16,39h-1.61c0-4-3.03-6.746-6.78-6.746S53,35.36,53,39.11V40H38v-0.89
					c0-3.75-3.275-6.801-7.025-6.801c-2.42,0-4.662,1.271-5.862,3.181c-0.65,1.029-1.086,2.186-1.096,3.475
					C24.007,38.994,23.95,39,23.95,39H22v0.02c0-2.38,1.215-4.52,2.825-6.039c1.51-1.421,3.618-2.436,5.837-2.436
					c4.361,0,8.048,3.455,8.448,7.455H51.39c0.4-4,4-7.51,8.36-7.51C64.39,30.49,68.16,34,68.16,39z"/>
			</g>
		</g>
	</g>
</g>
<g id="tyres">
	<g>
		<g>
			<path fill="#D8D8D8" d="M28.194,39.03c0,1.513,1.23,2.743,2.743,2.743s2.742-1.23,2.742-2.743c0-1.512-1.229-2.742-2.742-2.742
				S28.194,37.519,28.194,39.03z"/>
		</g>
		<g>
			<path fill="#31342C" d="M29.979,39.03c0-0.527,0.431-0.957,0.958-0.957s0.957,0.43,0.957,0.957c0,0.528-0.43,0.958-0.957,0.958
				S29.979,39.559,29.979,39.03z M30.331,39.03c0,0.334,0.271,0.606,0.606,0.606c0.334,0,0.605-0.272,0.605-0.606
				s-0.271-0.605-0.605-0.605C30.603,38.425,30.331,38.696,30.331,39.03z"/>
		</g>
		<g>
			<path fill="#31342C" d="M27.843,39.03c0-1.705,1.389-3.094,3.095-3.094s3.094,1.389,3.094,3.094c0,1.706-1.388,3.095-3.094,3.095
				S27.843,40.736,27.843,39.03z M28.194,39.03c0,1.513,1.23,2.743,2.743,2.743s2.742-1.23,2.742-2.743
				c0-1.512-1.229-2.742-2.742-2.742S28.194,37.519,28.194,39.03z"/>
		</g>
		<path fill="#31342C" d="M30.938,35.097c2.172,0,3.935,1.761,3.935,3.934s-1.763,3.935-3.935,3.935
			c-2.173,0-3.935-1.762-3.935-3.935S28.765,35.097,30.938,35.097z M24.424,39.03c0,3.598,2.916,6.514,6.514,6.514
			c3.597,0,6.513-2.916,6.513-6.514c0-3.597-2.916-6.514-6.513-6.514C27.34,32.517,24.424,35.434,24.424,39.03z"/>
		<path fill="#31342C" d="M31.401,36.148c0,0-0.464-0.083-0.859-0.01c0,0,0.314,1.333,0.752,0.215L31.401,36.148z"/>
		<path fill="#31342C" d="M33.383,37.342c0,0-0.27-0.388-0.601-0.614c0,0-0.721,1.164,0.379,0.683L33.383,37.342z"/>
		<path fill="#31342C" d="M28.55,37.342c0,0,0.269-0.388,0.6-0.614c0,0,0.721,1.164-0.379,0.683L28.55,37.342z"/>
		<path fill="#31342C" d="M33.815,39.536c0,0,0.084-0.464,0.01-0.858c0,0-1.333,0.313-0.214,0.751L33.815,39.536z"/>
		<path fill="#31342C" d="M28.059,39.536c0,0-0.083-0.464-0.01-0.858c0,0,1.334,0.313,0.215,0.751L28.059,39.536z"/>
		<path fill="#31342C" d="M32.751,41.321c0,0,0.388-0.269,0.614-0.6c0,0-1.164-0.721-0.683,0.38L32.751,41.321z"/>
		<path fill="#31342C" d="M29.033,41.321c0,0-0.388-0.269-0.615-0.6c0,0,1.166-0.721,0.684,0.38L29.033,41.321z"/>
		<path fill="#31342C" d="M31.401,36.148c0,0-0.464-0.083-0.859-0.01c0,0,0.314,1.333,0.752,0.215L31.401,36.148z"/>
		<path fill="#31342C" d="M31.401,41.798c0,0-0.464,0.083-0.859,0.01c0,0,0.314-1.333,0.752-0.215L31.401,41.798z"/>
		<g>
			<path fill="#A3A3A3" d="M30.331,39.03c0,0.334,0.271,0.606,0.606,0.606c0.334,0,0.605-0.272,0.605-0.606
				s-0.271-0.605-0.605-0.605C30.603,38.425,30.331,38.696,30.331,39.03z"/>
		</g>
		<g>
			<path fill="#C1BFBC" d="M30.331,39.03c0,0.334,0.271,0.606,0.606,0.606c0.334,0,0.605-0.272,0.605-0.606
				s-0.271-0.605-0.605-0.605C30.603,38.425,30.331,38.696,30.331,39.03z"/>
		</g>
		<g>
			<radialGradient id="SVGID_1_" cx="30.8975" cy="37.792" r="9.3022" gradientUnits="userSpaceOnUse">
				<stop  offset="0" style="stop-color:#686868"/>
				<stop  offset="1" style="stop-color:#C1BAB0"/>
			</radialGradient>
			<path fill="url(#SVGID_1_)" d="M26.964,39.03c0-2.191,1.782-3.974,3.974-3.974c2.19,0,3.973,1.782,3.973,3.974
				s-1.782,3.974-3.973,3.974C28.746,43.004,26.964,41.222,26.964,39.03z M27.835,39.03c0,1.711,1.392,3.103,3.103,3.103
				c1.71,0,3.102-1.392,3.102-3.103s-1.392-3.102-3.102-3.102C29.227,35.929,27.835,37.319,27.835,39.03z"/>
		</g>
	</g>
	<g display="none">
		<g display="inline">
			<path fill="#D8D8D8" d="M57.012,39.03c0,1.513,1.23,2.743,2.743,2.743c1.512,0,2.743-1.23,2.743-2.743
				c0-1.512-1.231-2.742-2.743-2.742C58.242,36.288,57.012,37.519,57.012,39.03z"/>
		</g>
		<g display="inline">
			<path fill="#31342C" d="M58.797,39.03c0-0.527,0.431-0.957,0.958-0.957s0.957,0.43,0.957,0.957c0,0.528-0.43,0.958-0.957,0.958
				S58.797,39.559,58.797,39.03z M59.148,39.03c0,0.334,0.271,0.606,0.606,0.606c0.333,0,0.605-0.272,0.605-0.606
				s-0.272-0.605-0.605-0.605C59.42,38.425,59.148,38.696,59.148,39.03z"/>
		</g>
		<g display="inline">
			<path fill="#31342C" d="M56.66,39.03c0-1.705,1.389-3.094,3.095-3.094s3.094,1.389,3.094,3.094c0,1.706-1.388,3.095-3.094,3.095
				S56.66,40.736,56.66,39.03z M57.012,39.03c0,1.513,1.23,2.743,2.743,2.743c1.512,0,2.743-1.23,2.743-2.743
				c0-1.512-1.231-2.742-2.743-2.742C58.242,36.288,57.012,37.519,57.012,39.03z"/>
		</g>
		<path display="inline" fill="#31342C" d="M59.755,35.097c2.173,0,3.935,1.761,3.935,3.934s-1.762,3.935-3.935,3.935
			s-3.935-1.762-3.935-3.935S57.582,35.097,59.755,35.097z M53.241,39.03c0,3.598,2.916,6.514,6.514,6.514
			c3.597,0,6.513-2.916,6.513-6.514c0-3.597-2.916-6.514-6.513-6.514C56.157,32.517,53.241,35.434,53.241,39.03z"/>
		<path display="inline" fill="#31342C" d="M60.219,36.148c0,0-0.464-0.083-0.859-0.01c0,0,0.314,1.333,0.752,0.215L60.219,36.148z"
			/>
		<path display="inline" fill="#31342C" d="M62.199,37.342c0,0-0.269-0.388-0.6-0.614c0,0-0.722,1.164,0.379,0.683L62.199,37.342z"
			/>
		<path display="inline" fill="#31342C" d="M57.366,37.342c0,0,0.27-0.388,0.601-0.614c0,0,0.721,1.164-0.379,0.683L57.366,37.342z"
			/>
		<path display="inline" fill="#31342C" d="M62.633,39.536c0,0,0.084-0.464,0.01-0.858c0,0-1.333,0.313-0.215,0.751L62.633,39.536z"
			/>
		<path display="inline" fill="#31342C" d="M56.877,39.536c0,0-0.084-0.464-0.01-0.858c0,0,1.333,0.313,0.214,0.751L56.877,39.536z"
			/>
		<path display="inline" fill="#31342C" d="M61.568,41.321c0,0,0.388-0.269,0.615-0.6c0,0-1.166-0.721-0.684,0.38L61.568,41.321z"/>
		<path display="inline" fill="#31342C" d="M57.851,41.321c0,0-0.388-0.269-0.614-0.6c0,0,1.164-0.721,0.683,0.38L57.851,41.321z"/>
		<path display="inline" fill="#31342C" d="M60.219,36.148c0,0-0.464-0.083-0.859-0.01c0,0,0.314,1.333,0.752,0.215L60.219,36.148z"
			/>
		<path display="inline" fill="#31342C" d="M60.219,41.798c0,0-0.464,0.083-0.859,0.01c0,0,0.314-1.333,0.752-0.215L60.219,41.798z"
			/>
		<g display="inline">
			<path fill="#A3A3A3" d="M59.148,39.03c0,0.334,0.271,0.606,0.606,0.606c0.333,0,0.605-0.272,0.605-0.606
				s-0.272-0.605-0.605-0.605C59.42,38.425,59.148,38.696,59.148,39.03z"/>
		</g>
		<g display="inline">
			<path fill="#C1BFBC" d="M59.148,39.03c0,0.334,0.271,0.606,0.606,0.606c0.333,0,0.605-0.272,0.605-0.606
				s-0.272-0.605-0.605-0.605C59.42,38.425,59.148,38.696,59.148,39.03z"/>
		</g>
		<g display="inline">
			<radialGradient id="SVGID_2_" cx="59.7139" cy="37.792" r="9.3039" gradientUnits="userSpaceOnUse">
				<stop  offset="0" style="stop-color:#686868"/>
				<stop  offset="1" style="stop-color:#C1BAB0"/>
			</radialGradient>
			<path fill="url(#SVGID_2_)" d="M55.78,39.03c0-2.191,1.783-3.974,3.975-3.974c2.19,0,3.974,1.782,3.974,3.974
				s-1.783,3.974-3.974,3.974C57.563,43.004,55.78,41.222,55.78,39.03z M56.652,39.03c0,1.711,1.392,3.103,3.103,3.103
				c1.71,0,3.103-1.392,3.103-3.103s-1.393-3.102-3.103-3.102C58.044,35.929,56.652,37.319,56.652,39.03z"/>
		</g>
	</g>
</g>
</svg>
